<?xml version="1.0" encoding="UTF-8"?>
<svg id="Calque_1" data-name="Calque 1" xmlns="http://www.w3.org/2000/svg" viewBox="0 0 56.18 55.06">
  <defs>
    <style>
      .cls-1 {
        fill: #f8d006;
      }
    </style>
  </defs>
  <path class="cls-1" d="M48.26,35.48c.74,1.62,1.15,3.43,1.15,5.33,0,7.14-5.79,12.94-12.94,12.94-3.34,0-6.39-1.27-8.68-3.35-2.29,2.08-5.34,3.35-8.68,3.35-7.14,0-12.94-5.79-12.94-12.94,0-1.9.41-3.71,1.15-5.33-3.84-2.25-6.42-6.41-6.42-11.18,0-7.15,5.79-12.94,12.94-12.94.45,0,.89.02,1.32.07,1.29-5.79,6.45-10.12,12.63-10.12s11.34,4.33,12.63,10.12c.44-.04.88-.07,1.32-.07,7.15,0,12.94,5.79,12.94,12.94,0,4.77-2.58,8.93-6.42,11.18Z"/>
</svg>