<?xml version="1.0" encoding="UTF-8"?>
<svg id="Calque_1" data-name="Calque 1" xmlns="http://www.w3.org/2000/svg" viewBox="0 0 70.83 69.96">
  <defs>
    <style>
      .cls-1 {
        fill: #283781;
      }
    </style>
  </defs>
  <path class="cls-1" d="M35.44,1.99c2.61,0,4.72,3.63,4.72,8.12,0,1.18-.15,2.3-.41,3.32l-4.33,21.55-4.5-22.44h.02c-.15-.76-.22-1.58-.22-2.43,0-4.49,2.11-8.12,4.73-8.12Z"/>
  <path class="cls-1" d="M18.94,6.4c2.26-1.31,5.9.79,8.15,4.67.59,1.02,1.02,2.07,1.3,3.08l7.03,20.83-15.12-17.18h.02c-.51-.6-.98-1.26-1.41-2-2.24-3.88-2.23-8.09.03-9.39Z"/>
  <path class="cls-1" d="M6.86,18.47c1.31-2.26,5.51-2.27,9.39-.03,1.02.59,1.92,1.28,2.66,2.02l16.5,14.52-21.68-7.32v-.02c-.72-.25-1.46-.6-2.2-1.02-3.88-2.24-5.97-5.89-4.67-8.15Z"/>
  <path class="cls-1" d="M2.43,34.96c0-2.61,3.63-4.72,8.12-4.72,1.18,0,2.3.15,3.32.41l21.55,4.33-22.44,4.5v-.02c-.76.15-1.58.22-2.43.22-4.49,0-8.12-2.11-8.12-4.73Z"/>
  <path class="cls-1" d="M6.84,51.45c-1.31-2.26.79-5.9,4.67-8.15,1.02-.59,2.07-1.02,3.08-1.3l20.83-7.03-17.18,15.12v-.02c-.6.51-1.26.98-2,1.41-3.88,2.24-8.09,2.23-9.39-.03Z"/>
  <path class="cls-1" d="M18.9,63.53c-2.26-1.31-2.27-5.51-.03-9.39.59-1.02,1.28-1.92,2.02-2.66l14.52-16.5-7.32,21.68h-.02c-.25.72-.6,1.46-1.02,2.2-2.24,3.88-5.89,5.97-8.15,4.67Z"/>
  <path class="cls-1" d="M35.39,67.97c-2.61,0-4.72-3.63-4.72-8.12,0-1.18.15-2.3.41-3.32l4.33-21.55,4.5,22.44h-.02c.15.76.22,1.58.22,2.43,0,4.49-2.11,8.12-4.73,8.12Z"/>
  <path class="cls-1" d="M51.89,63.56c-2.26,1.31-5.9-.79-8.15-4.67-.59-1.02-1.02-2.07-1.3-3.08l-7.03-20.83,15.12,17.18h-.02c.51.6.98,1.26,1.41,2,2.24,3.88,2.23,8.09-.03,9.39Z"/>
  <path class="cls-1" d="M63.97,51.49c-1.31,2.26-5.51,2.27-9.39.03-1.02-.59-1.92-1.28-2.66-2.02l-16.5-14.52,21.68,7.32v.02c.72.25,1.46.6,2.2,1.02,3.88,2.24,5.97,5.89,4.67,8.15Z"/>
  <path class="cls-1" d="M68.4,35c0,2.61-3.63,4.72-8.12,4.72-1.18,0-2.3-.15-3.32-.41l-21.55-4.33,22.44-4.5v.02c.76-.15,1.58-.22,2.43-.22,4.49,0,8.12,2.11,8.12,4.73Z"/>
  <path class="cls-1" d="M63.99,18.51c1.31,2.26-.79,5.9-4.67,8.15-1.02.59-2.07,1.02-3.08,1.3l-20.83,7.03,17.18-15.12v.02c.6-.51,1.26-.98,2-1.41,3.88-2.24,8.09-2.23,9.39.03Z"/>
  <path class="cls-1" d="M51.93,6.42c2.26,1.31,2.27,5.51.03,9.39-.59,1.02-1.28,1.92-2.02,2.66l-14.52,16.5,7.32-21.68h.02c.25-.72.6-1.46,1.02-2.2,2.24-3.88,5.89-5.97,8.15-4.67Z"/>
</svg>