<?xml version="1.0" encoding="UTF-8"?>
<svg id="Calque_1" xmlns="http://www.w3.org/2000/svg" viewBox="0 0 154.06 240.05">
  <defs>
    <style>
      .cls-1 {
        fill: #a2acd8;
      }
    </style>
  </defs>
  <rect class="cls-1" x="62.53" y="145.44" width="70.9" height="70.9"/>
  <path d="M77.49,55.48c-1.29,1.61-2.46,3.33-3.89,4.79-7.57,7.69-15.26,15.28-22.8,23.01-1.56,1.6-2.49,1.59-3.94-.03-2.2-2.49-4.56-4.84-6.95-7.15-1.28-1.23-1.12-2.07.09-3.26,11.93-11.81,23.81-23.66,35.7-35.51,3-2.99,5.99-5.99,8.91-9.05,1.18-1.24,2-1.25,3.25,0,14.83,14.89,29.69,29.74,44.61,44.55,1.37,1.36,1.23,2.22-.04,3.45-2.39,2.3-4.75,4.65-6.98,7.12-1.33,1.48-2.22,1.41-3.6,0-8.28-8.41-16.65-16.74-25-25.07-.79-.79-1.68-1.47-3.05-2.66-.1,1.95-.23,3.22-.23,4.49-.01,40.83-.03,81.65.05,122.48,0,2.48-.52,3.22-3.12,3.2-20.44-.12-40.88-.07-61.32-.07h-2.57v-14.75h2.9c15.45,0,30.91-.04,46.36.05,2.21.01,2.97-.44,2.97-2.86-.08-36.59-.05-73.17-.05-109.76,0-.72-.1-1.43-.15-2.15-.38-.28-.75-.56-1.13-.84Z"/>
</svg>