<?xml version="1.0" encoding="UTF-8"?>
<svg id="Calque_1" data-name="Calque 1" xmlns="http://www.w3.org/2000/svg" viewBox="0 0 100.23 57.61">
  <defs>
    <style>
      .cls-1 {
        stroke-miterlimit: 10;
      }

      .cls-1, .cls-2 {
        fill: none;
        stroke: #000;
      }

      .cls-2 {
        stroke-width: .11px;
      }
    </style>
  </defs>
  <g>
    <path class="cls-2" d="M18.74,25.24c.41-.71.98-1.27,1.72-1.69.73-.42,1.55-.63,2.45-.63h.48c.76,0,1.46.15,2.1.45.65.3,1.19.72,1.63,1.26s.74,1.15.91,1.84l-.59.12c-.35-.43-.88-.77-1.59-1.03s-1.5-.4-2.36-.4h-.69c-.78,0-1.51.11-2.17.33-.66.22-1.19.51-1.59.88s-.59.78-.59,1.22.2.84.59,1.21c.4.37.93.66,1.59.88.66.22,1.39.33,2.17.33h.69c.86,0,1.65-.13,2.36-.4s1.25-.61,1.59-1.03l.59.11c-.17.68-.47,1.29-.91,1.82-.43.54-.97.96-1.62,1.26-.65.31-1.35.46-2.12.46h-.48c-.9,0-1.72-.21-2.44-.63-.73-.42-1.3-.98-1.72-1.69-.42-.71-.63-1.49-.63-2.33s.21-1.63.62-2.34Z"/>
    <path class="cls-2" d="M28.81,23.1h.37v6.7h6.62v2.23h-6.99v-8.93Z"/>
    <path class="cls-2" d="M42.78,23.1l4.18,8.93h-.41l-1.49-3.19h-5.07l-1.53,3.19h-2.35l4.31-8.93h2.35ZM40.17,28.48h4.71l-2.32-4.94-2.39,4.94Z"/>
    <path class="cls-2" d="M51.03,22.92c1.22,0,2.24.31,3.08.92s1.41,1.5,1.72,2.65l-.54.1c-.48-.54-1.06-.91-1.72-1.12s-1.41-.31-2.23-.31h-.69c-.53,0-1.09.05-1.68.15-.59.1-1.1.25-1.51.47-.42.21-.63.48-.63.8,0,.19.09.34.27.45.18.11.48.19.91.25.43.06,1.03.08,1.79.08h3.46c.62,0,1.16.09,1.63.26.46.17.69.53.69,1.08,0,.59-.18,1.17-.55,1.71-.37.55-.88.98-1.55,1.31-.67.33-1.43.5-2.29.5-2.61,0-4.26-1.19-4.94-3.57l.52-.1c.54.54,1.12.91,1.73,1.13.61.22,1.35.33,2.24.33h.69c.54,0,1.11-.06,1.69-.17.58-.11,1.07-.27,1.47-.49s.6-.48.6-.78c0-.26-.15-.46-.44-.58-.29-.12-.67-.2-1.12-.23-.45-.03-1.08-.04-1.89-.04h-2.85c-.75,0-1.35-.08-1.81-.25-.45-.17-.68-.5-.68-1.01,0-.43.16-.93.48-1.47.32-.55.83-1.03,1.52-1.44.69-.41,1.56-.61,2.61-.61Z"/>
    <path class="cls-2" d="M61.11,22.92c1.22,0,2.24.31,3.08.92s1.41,1.5,1.72,2.65l-.54.1c-.48-.54-1.06-.91-1.72-1.12s-1.41-.31-2.23-.31h-.69c-.53,0-1.09.05-1.68.15-.59.1-1.1.25-1.51.47-.42.21-.63.48-.63.8,0,.19.09.34.27.45.18.11.48.19.91.25.43.06,1.03.08,1.79.08h3.46c.62,0,1.16.09,1.63.26.46.17.69.53.69,1.08,0,.59-.18,1.17-.55,1.71-.37.55-.88.98-1.55,1.31-.67.33-1.43.5-2.29.5-2.61,0-4.26-1.19-4.94-3.57l.52-.1c.54.54,1.12.91,1.73,1.13.61.22,1.35.33,2.24.33h.69c.54,0,1.11-.06,1.69-.17.58-.11,1.07-.27,1.47-.49s.6-.48.6-.78c0-.26-.15-.46-.44-.58-.29-.12-.67-.2-1.12-.23-.45-.03-1.08-.04-1.89-.04h-2.85c-.75,0-1.35-.08-1.81-.25-.45-.17-.68-.5-.68-1.01,0-.43.16-.93.48-1.47.32-.55.83-1.03,1.52-1.44.69-.41,1.56-.61,2.61-.61Z"/>
    <path class="cls-2" d="M68.21,21.2c0,.28-.1.52-.3.72s-.44.3-.72.3-.52-.1-.72-.3-.3-.44-.3-.72.1-.53.3-.73.44-.3.72-.3.52.1.72.3.3.44.3.73ZM67.36,23.1v8.93h-.37v-8.93h.37Z"/>
    <path class="cls-2" d="M69.08,25.24c.41-.71.98-1.27,1.72-1.69.73-.42,1.55-.63,2.45-.63h.48c.76,0,1.46.15,2.1.45.65.3,1.19.72,1.63,1.26s.74,1.15.91,1.84l-.59.12c-.35-.43-.88-.77-1.59-1.03s-1.5-.4-2.36-.4h-.69c-.78,0-1.51.11-2.17.33-.66.22-1.19.51-1.59.88s-.59.78-.59,1.22.2.84.59,1.21c.4.37.93.66,1.59.88.66.22,1.39.33,2.17.33h.69c.86,0,1.65-.13,2.36-.4s1.25-.61,1.59-1.03l.59.11c-.17.68-.47,1.29-.91,1.82-.43.54-.97.96-1.62,1.26-.65.31-1.35.46-2.12.46h-.48c-.9,0-1.72-.21-2.44-.63-.73-.42-1.3-.98-1.72-1.69-.42-.71-.63-1.49-.63-2.33s.21-1.63.62-2.34Z"/>
  </g>
  <line class="cls-1" x1="8.07" y1="15.95" x2="35.97" y2="15.95"/>
  <line class="cls-1" x1="65.74" y1="40.27" x2="93.64" y2="40.27"/>
  <line class="cls-1" x1="84.01" y1="6.13" x2="84.01" y2="34.03"/>
  <line class="cls-1" x1="14.1" y1="24.46" x2="14.1" y2="52.36"/>
  <circle class="cls-1" cx="5.32" cy="52.36" r="3.71"/>
  <circle class="cls-1" cx="92" cy="6.13" r="3.71"/>
  <circle cx="80.08" cy="6.13" r="1.67"/>
  <circle cx="18.37" cy="52.36" r="1.67"/>
  <rect class="cls-1" x="89.84" y="45.61" width="7.6" height="7.6"/>
  <rect x="92" y="34.21" width="3.29" height="3.29"/>
  <rect x="6.42" y="18.43" width="3.29" height="3.29"/>
  <rect class="cls-1" x="4.27" y="3.73" width="7.6" height="7.6"/>
</svg>