<?xml version="1.0" encoding="UTF-8"?>
<svg id="Calque_1" data-name="Calque 1" xmlns="http://www.w3.org/2000/svg" viewBox="0 0 167.81 168.04">
  <path d="M83.7,162.89c-1.82-.56-3.62-1.15-5.45-1.66-12.89-3.58-25.77-7.16-38.67-10.7-1.04-.29-1.37-.75-1.45-1.81-.32-4.33-.75-8.65-1.14-12.97-.37-4.15-.72-8.31-1.09-12.46-.38-4.29-.78-8.58-1.16-12.86-.3-3.34-.59-6.67-.88-10.01-.39-4.36-.79-8.71-1.18-13.07-.37-4.15-.72-8.31-1.09-12.46-.38-4.29-.78-8.58-1.17-12.86-.35-3.91-.71-7.83-1.06-11.74-.41-4.63-.8-9.25-1.2-13.97h111.51c-.21,2.45-.4,4.86-.61,7.27-.31,3.51-.64,7.01-.96,10.52-.39,4.29-.78,8.58-1.16,12.86-.3,3.34-.59,6.67-.89,10.01-.39,4.36-.79,8.71-1.17,13.07-.3,3.34-.59,6.67-.88,10.01-.39,4.32-.78,8.64-1.17,12.97-.37,4.12-.73,8.24-1.09,12.36-.39,4.32-.78,8.64-1.17,12.97-.31,3.47-.63,6.94-.88,10.42-.07,.98-.36,1.48-1.4,1.76-14.49,3.97-28.96,7.98-43.43,11.99-.32,.09-.63,.25-.94,.37h-.21Zm-30.47-54.16c0,.34-.02,.57,0,.81,.28,3.41,.56,6.81,.86,10.22,.3,3.37,.65,6.74,.91,10.11,.06,.76,.39,1.04,1.07,1.22,9.02,2.48,18.04,4.99,27.07,7.46,.5,.14,1.09,.13,1.59,0,3.3-.87,6.58-1.79,9.87-2.7,5.69-1.57,11.38-3.15,17.06-4.73,.52-.15,1.02-.24,1.07-1,.22-2.93,.53-5.85,.79-8.77,.43-5,.83-10.01,1.28-15.01,.51-5.71,1.07-11.42,1.59-17.14,.14-1.54,.12-1.54-1.4-1.54-16.02,.01-32.04,.02-48.06,.03-.47,0-.93,0-1.47,0-.43-4.76-.84-9.37-1.26-14.11,.62,0,1.09,0,1.56,0,15.68,.01,31.36,.02,47.04,.04,1.37,0,2.74-.02,4.11,0,.65,.01,.9-.23,.96-.89,.31-3.71,.67-7.41,1-11.12,.2-2.29,.18-2.29-2.11-2.29-22.01,.01-44.02,.03-66.04,.04-1.94,0-1.96,0-1.79,1.94,.56,6.54,1.12,13.08,1.7,19.62,.58,6.5,1.19,13,1.78,19.51,.13,1.46,.11,1.47,1.61,1.47,15.13,.02,30.26,.03,45.39,.05,.46,0,.93,.04,1.49,.07-.1,1.34-.18,2.56-.29,3.78-.39,4.32-.81,8.64-1.15,12.96-.06,.78-.29,1.15-1.05,1.35-4.69,1.23-9.36,2.51-14.05,3.75-.37,.1-.81,.09-1.18,0-4.69-1.24-9.37-2.5-14.06-3.74-.57-.15-.81-.41-.86-1.03-.23-3-.52-5.99-.79-8.99-.12-1.41-.12-1.41-1.51-1.41-3.83,0-7.67,0-11.5,0-.4,0-.8,.04-1.25,.06Z"/>
  <path d="M108.97,5.16V26.36h-7.07v-9.98c-.09-.03-.19-.06-.28-.1-1.54,2.38-3.09,4.75-4.71,7.25-1.63-2.5-3.19-4.91-4.76-7.33-.06,.02-.13,.05-.19,.07v10.08h-7.02V5.16c2.53,0,5.07,0,7.6,0,1.44,2.46,2.88,4.93,4.39,7.52,1-1.63,1.92-3.1,2.81-4.6,.57-.96,1.09-1.95,1.63-2.92,2.53,0,5.07,0,7.6,0Z"/>
  <path d="M59.05,5.16c.03,.27,.09,.54,.09,.81,0,6.5,0,13.01,0,19.51,0,.27-.03,.54-.06,.88h-7.02v-6.97h-6.5v6.98h-7.02c-.03-.27-.09-.53-.09-.79,0-6.61,0-13.21,0-19.82,0-.2,.05-.4,.07-.61,2.33,0,4.66,0,6.98,0v6.93h6.57V5.16c2.33,0,4.66,0,6.98,0Z"/>
  <path d="M81.85,5.16v7.01h-6.23c0,.52,0,.88,0,1.25,0,4-.02,8,.02,12,0,.83-.25,1.05-1.05,1.03-1.98-.05-3.96-.02-6.04-.02V12.22h-6.21V5.16h19.51Z"/>
  <path d="M119.65,5.16v14.18h9.85v7.03h-17.04V5.16h7.19Z"/>
</svg>