<?xml version="1.0" encoding="UTF-8"?>
<svg id="nuancier_de_couleur" data-name="nuancier de couleur" xmlns="http://www.w3.org/2000/svg" viewBox="0 0 288 32.07">
  <defs>
    <style>
      .cls-1 {
        fill: #eebcd8;
      }

      .cls-2 {
        fill: #b3ceed;
      }

      .cls-3 {
        fill: #fafcf9;
      }

      .cls-4 {
        fill: #a79bcb;
      }

      .cls-5 {
        fill: #ece394;
      }

      .cls-6 {
        fill: #edbcd8;
      }

      .cls-7 {
        fill: #acd1d2;
      }

      .cls-8 {
        fill: #ebe293;
      }

      .cls-9 {
        fill: #fbfbfb;
      }

      .cls-10 {
        fill: #d3d3d3;
      }

      .cls-11 {
        fill: #69a4a0;
      }

      .cls-12 {
        fill: #729fd4;
      }

      .cls-13 {
        fill: none;
        stroke: #000;
        stroke-miterlimit: 10;
        stroke-width: .2px;
      }

      .cls-14 {
        fill: #fafbfc;
      }

      .cls-15 {
        fill: #ec9451;
      }

      .cls-16 {
        fill: #f2f2f2;
      }

      .cls-17 {
        fill: #b7d482;
      }

      .cls-18 {
        fill: #fcfbf7;
      }
    </style>
  </defs>
  <path class="cls-7" d="M103.06,20.74c-.61,.16-1.24,.25-1.89,.27,.65-.04,1.28-.12,1.89-.27Z"/>
  <g id="Forme_5" data-name="Forme 5">
    <g>
      <path class="cls-8" d="M135.1,10.28l6.68-.02v3.16s-6.48,.02-6.48,.02c-1.95,0-3.52,1.59-3.51,3.54,0,1.93,1.59,3.5,3.54,3.49l6.49-.02v3.16s-6.67,.02-6.67,.02c-3.68,.01-6.69-2.96-6.71-6.64,0-1.85,.73-3.53,1.95-4.74,1.2-1.21,2.86-1.96,4.71-1.97Z"/>
      <path d="M135.1,10.27s6.68-.08,6.68-.08h.07s0,.07,0,.07l.04,3.16v.1c-2.04,.04-4.07,.05-6.11,.03-.99-.07-1.99,.17-2.73,.83-1.56,1.29-1.58,3.89-.01,5.19,.74,.68,1.77,.92,2.76,.84l6.01-.06s.09,0,.09,0v.1s.04,3.16,.04,3.16c0,0,0,.12,0,.12-2.35,.03-4.69,.04-7.04,.04-8.86-.53-8.64-13.23,.19-13.49h0Zm0,.03c-8.56,.35-8.68,12.63-.18,13.18,0,0,6.91,0,6.91,0,0,0-.12,.12-.12,.12v-3.16s.11,.09,.11,.09c0,0-6.01-.02-6.01-.02-3.46,.38-5.54-3.93-2.88-6.28,.76-.71,1.85-.98,2.85-.92,2-.03,4.01-.03,6.01-.01l-.1,.1,.02-3.16,.07,.07s-6.68-.03-6.68-.03h0Z"/>
    </g>
    <g>
      <rect class="cls-8" x="141.62" y="8.35" width="16.61" height="17.14" transform="translate(-.06 .54) rotate(-.21)"/>
      <path d="M141.64,25.52c-.04-5.12-.22-12.21-.16-17.26,0,0,.11,0,.11,0l8.31,.03c2.77,.01,5.54-.04,8.31-.06,0,0,.08,0,.08,0,0,0,0,.08,0,.08,.08,5.76,.1,11.52,.13,17.28-4.89,.05-11.82-.06-16.77-.07h0Zm.02-.02l8.34-.12c2.76-.04,5.51-.08,8.26-.08,0,0-.15,.15-.15,.15-.02-5.71-.04-11.42,0-17.14-2.24,.25-5.61-.04-8.22,.09,0,0-8.31,.09-8.31,.09l.11-.11c.04,2.84,.03,5.68,.01,8.53l-.05,8.6h0Z"/>
    </g>
    <g>
      <path class="cls-3" d="M133.28,13.91s-5.15,2.6-3.18,7.02c0,0,1.49,2.33,5.36,2.4l6.09,.04-.08-2.74-6.06-.02s-2.78,.01-3.7-2.83c0,0-.58-2.81,1.57-3.88Z"/>
      <polygon class="cls-3" points="141.82 17.27 157.95 17.26 157.98 25.22 141.65 25.48 141.82 17.27"/>
    </g>
    <line class="cls-13" x1="141.64" y1="23.03" x2="158.25" y2="22.97"/>
    <line class="cls-13" x1="141.63" y1="20.87" x2="158.25" y2="20.81"/>
    <line class="cls-13" x1="141.6" y1="13" x2="158.22" y2="12.94"/>
    <line class="cls-13" x1="141.6" y1="10.84" x2="158.21" y2="10.78"/>
    <line class="cls-13" x1="149.25" y1="20.84" x2="149.23" y2="12.97"/>
    <line class="cls-13" x1="151.06" y1="20.84" x2="151.03" y2="12.96"/>
    <line class="cls-13" x1="147.45" y1="20.85" x2="147.42" y2="12.97"/>
    <g>
      <line class="cls-2" x1="141.65" y1="25.48" x2="141.62" y2="17.43"/>
      <path d="M141.65,25.48c-.14-1.12-.08-2.89-.1-4.02,0-1.14-.06-2.9,.07-4.02,.14,1.12,.08,2.89,.1,4.02,0,1.14,.06,2.9-.07,4.02h0Z"/>
    </g>
  </g>
  <g>
    <g>
      <rect class="cls-2" x="9.13" y="8.86" width="115.49" height="17.36" rx="4.19" ry="4.19"/>
      <path d="M13.32,8.85c31.11-.09,65.65-.14,96.94-.04,1.13,0,9.03,0,10.1,0,2.07-.07,4.03,1.57,4.28,3.64,.1,2.71,.04,5.39,.06,8.08,.33,2.91-1.03,5.71-4.26,5.78-21.45,.02-76.21,.08-96.94,0-1.13,0-9.03-.02-10.1-.03-2.08,.06-4.03-1.59-4.27-3.66-.09-2.7-.01-5.39-.03-8.08-.31-2.9,1-5.62,4.22-5.7h0Zm0,.03c-3.13,.07-4.5,2.8-4.15,5.67,.03,2.69-.03,5.4,.06,8.07,.18,1.32,1.05,2.52,2.24,3.1,1.2,.64,2.61,.38,3.94,.43,0,0,8.08-.02,8.08-.02,20.49-.07,75.74-.02,96.94,0,3.1-.06,4.44-2.75,4.11-5.6-.02-2.69,.06-5.4-.03-8.07-.17-1.32-1.04-2.52-2.23-3.11-1.2-.65-2.61-.39-3.94-.45,0,0-8.08,0-8.08,0-31.35,.11-65.77,.04-96.94-.04h0Z"/>
    </g>
    <g id="Forme_1" data-name="Forme 1">
      <g>
        <path class="cls-5" d="M18.13,13.48c-2.79,0-5.05,2.26-5.05,5.05s2.26,5.05,5.05,5.05,5.05-2.26,5.05-5.05-2.26-5.05-5.05-5.05Zm0,8.24c-1.76,0-3.19-1.43-3.19-3.19s1.43-3.19,3.19-3.19,3.19,1.43,3.19,3.19-1.43,3.19-3.19,3.19Z"/>
        <g>
          <path d="M18.13,13.49c-6.44,.23-6.59,9.91,0,10,6.47-.28,6.46-9.73,0-10h0Zm0-.03c6.89,.14,6.87,10.07,0,10.2-6.76-.32-6.9-10.02,0-10.2h0Z"/>
          <path d="M18.13,21.73c-4.46-.1-4.29-6.24,0-6.48,4.4,.03,4.43,6.45,0,6.48h0Zm0-.03c3.99-.17,4.01-6.1,0-6.29-4.13,0-3.98,6.15,0,6.29h0Z"/>
        </g>
      </g>
      <g>
        <ellipse class="cls-5" cx="17.14" cy="14.66" rx="1.79" ry="2.32" transform="translate(-4.26 7.54) rotate(-22.14)"/>
        <path d="M18.81,13.98c1.13,2.96-2.17,4.26-3.45,1.4-1.2-2.99,2.24-4.44,3.45-1.4h0Zm-.03,.01c-1.23-2.61-4.18-1.38-3.2,1.3,1.14,2.75,4.25,1.44,3.2-1.3h0Z"/>
      </g>
      <path d="M17.31,13.6c.49,.62,.71,2.64-.6,2.09,1.13,.03,.57-1.38,.6-2.09h0Z"/>
      <path class="cls-9" d="M16.55,12.58s.72-.11,.86,2.11c0,0,.18,1.08-.7,1.04,0,0-1.46,.77-1.39-1.58,0,0,.08-1.23,1.23-1.57Z"/>
      <path class="cls-9" d="M15.04,22.48s-.42-4.25-.04-4.9c0,0,.33-1.06,.85-1.39,0,0-.39-.34-.63-1.79,0,0-1.72,1.26-1.93,3.62,0,0-.31,2.97,1.75,4.46Z"/>
    </g>
    <g id="Forme_2" data-name="Forme 2">
      <g>
        <path class="cls-1" d="M36.5,14.77l-3.92-4.04c-.82-.85-1.91-1.28-3-1.3-1.09-.02-2.2,.39-3.05,1.21-1.69,1.64-1.74,4.34-.1,6.04l3.92,4.04c.82,.85,1.91,1.28,3.01,1.31,1.09,.02,2.19-.38,3.04-1.2,1.7-1.65,1.74-4.36,.1-6.05Zm-7.03,1.59c-.14,.14-.37,.14-.5,0l-1.31-1.35c-.86-.88-.83-2.3,.05-3.15,.45-.43,1.01-.63,1.59-.63,.57,.02,1.14,.24,1.57,.68l1.31,1.35c.13,.14,.13,.36,0,.49l-2.69,2.61Zm2.59,3.2l-1.3-1.34c-.14-.14-.14-.37,0-.51l2.69-2.61c.14-.13,.36-.13,.5,.02l1.3,1.34c.43,.45,.63,1.01,.63,1.59-.02,.57-.24,1.13-.68,1.57-.88,.86-2.3,.83-3.15-.05Z"/>
        <g>
          <path d="M36.49,14.78c-1.72-1.58-3.2-3.61-5.19-4.82-4.19-1.98-8.06,3.32-4.8,6.66,0,0,3.36,3.38,3.36,3.38,.55,.58,1.08,1.16,1.79,1.47,4.14,1.94,8-3.35,4.84-6.7h0Zm.02-.02c3.36,3.48-.56,9.07-4.98,6.97-.76-.34-1.33-.97-1.87-1.53l-3.28-3.46c-3.27-3.48,.66-9.06,5.03-7.01,2.05,1.27,3.34,3.42,5.1,5.03h0Z"/>
          <path d="M29.48,16.36c-.3,.3-.62-.07-.83-.29,0,0-.72-.66-.72-.66-2.84-2.22,.93-6.03,3.26-3.38,0,0,.69,.69,.69,.69,.21,.26,.68,.52,.51,.95-.67,.87-2.06,1.83-2.91,2.7h0Zm-.02-.02c.86-.88,1.8-1.91,2.64-2.78,.08-.19-.26-.4-.45-.62,0,0-.67-.71-.67-.71-2.25-2.61-5.43,.78-2.92,3.06,0,0,.64,.74,.64,.74,.19,.22,.45,.59,.76,.32h0Z"/>
          <path d="M32.05,19.56c-.46-.47-.93-.89-1.42-1.37-.12-.17-.1-.43,.06-.58l.34-.35c.68-.7,1.45-1.31,2.16-1.98,.23-.26,.58-.52,.88-.15,0,0,.7,.68,.7,.68,3.02,2.11,.04,6.22-2.71,3.75h0Zm.02-.02c1.45,1.52,4.17-.07,3.61-2.07-.22-.91-1.13-1.56-1.7-2.26-.1-.13-.23-.19-.37-.16-.85,.69-1.56,1.65-2.4,2.39,0,0-.36,.33-.36,.33-.08,.07-.12,.2-.06,.31,.38,.47,.84,.98,1.28,1.45h0Z"/>
        </g>
      </g>
      <path class="cls-9" d="M27.59,17.72s-1.18-3.76-.46-5.14c0,0,.29-2.44,2.01-3.03,0,0-2.65,.14-3.59,2.84,0,0-.77,1.74,.23,3.26,0,0,.6,1.01,1.81,2.06Z"/>
    </g>
    <g id="Forme_3" data-name="Forme 3">
      <g>
        <circle class="cls-17" cx="43.25" cy="13.78" r="2.06"/>
        <path d="M41.78,15.25c-1.93-2.03,.93-4.94,3.01-3.01,2.04,2.1-.97,5.06-3.01,3.01h0Zm.02-.02c1.84,1.72,4.55-.98,2.82-2.82-1.86-1.83-4.65,.92-2.82,2.82h0Z"/>
      </g>
      <path d="M44.16,13.18c.14,.43,.19,.94-.07,1.38-.22,.44-.93,.65-1.3,.4,.41-.15,.81-.21,1.11-.53,.29-.31,.24-.85,.27-1.24h0Z"/>
      <ellipse class="cls-18" cx="41.84" cy="13.7" rx="1" ry=".65" transform="translate(24.51 54.17) rotate(-84.95)"/>
    </g>
    <g id="Forme_3-2" data-name="Forme 3">
      <g>
        <circle class="cls-17" cx="93.79" cy="21.89" r="2.75"/>
        <path d="M91.83,23.85c-2.57-2.68,1.26-6.54,3.99-3.99,2.65,2.74-1.25,6.66-3.99,3.99h0Zm.02-.02c2.52,2.33,6.14-1.27,3.8-3.8-2.54-2.45-6.23,1.23-3.8,3.8h0Z"/>
      </g>
      <path d="M95,21.1c.49,1.26-.31,2.85-1.83,2.4,0,0,0-.03,0-.03,.56-.15,1.13-.24,1.51-.69,.38-.44,.32-1.15,.32-1.68h0Z"/>
      <ellipse class="cls-18" cx="91.9" cy="21.79" rx="1.34" ry=".86" transform="translate(62.11 111.42) rotate(-84.95)"/>
    </g>
    <g id="Forme_3-3" data-name="Forme 3">
      <g>
        <circle class="cls-12" cx="40.2" cy="22.6" r="2.34"/>
        <path d="M38.12,23.7c-1.39-2.86,2.64-5.02,4.26-2.25,1.49,2.91-2.7,5.14-4.26,2.25h0Zm.03-.01c1.46,2.5,5.28,.49,4.02-2.12-1.43-2.62-5.36-.58-4.02,2.12h0Z"/>
      </g>
      <path d="M41.39,22.26c.1,1.15-.98,2.29-2.1,1.5,0,0,0-.03,0-.03,.5,0,.96,.07,1.39-.2,.42-.25,.55-.85,.7-1.27h0Z"/>
      <ellipse class="cls-18" cx="38.69" cy="22.04" rx="1.14" ry=".73" transform="translate(3.66 49.53) rotate(-67.79)"/>
    </g>
    <g id="Forme_3-4" data-name="Forme 3">
      <g>
        <circle class="cls-11" cx="118.1" cy="21.68" r="2.06"/>
        <path d="M116.63,23.15c-1.93-2.03,.93-4.94,3.01-3.01,2.04,2.1-.97,5.06-3.01,3.01h0Zm.02-.02c1.84,1.72,4.55-.98,2.82-2.82-1.86-1.83-4.65,.92-2.82,2.82h0Z"/>
      </g>
      <path d="M119.01,21.08c.14,.43,.19,.94-.07,1.38-.22,.44-.93,.65-1.3,.4,.41-.15,.81-.21,1.11-.53,.29-.31,.24-.85,.27-1.24h0Z"/>
      <ellipse class="cls-18" cx="116.68" cy="21.6" rx="1" ry=".65" transform="translate(84.89 135.93) rotate(-84.95)"/>
    </g>
    <g id="Forme_3-5" data-name="Forme 3">
      <g>
        <circle class="cls-10" cx="59.76" cy="11.61" r="2.06"/>
        <path d="M58.29,13.08c-1.93-2.03,.93-4.94,3.01-3.01,2.04,2.1-.97,5.06-3.01,3.01h0Zm.02-.02c1.84,1.72,4.55-.98,2.82-2.82-1.86-1.83-4.65,.92-2.82,2.82h0Z"/>
      </g>
      <path d="M60.67,11.02c.14,.43,.19,.94-.07,1.38-.22,.44-.93,.65-1.3,.4,.41-.15,.81-.21,1.11-.53,.29-.31,.24-.85,.27-1.24h0Z"/>
      <ellipse class="cls-18" cx="58.35" cy="11.54" rx="1" ry=".65" transform="translate(41.72 68.64) rotate(-84.95)"/>
    </g>
    <g id="Forme_4" data-name="Forme 4">
      <g>
        <path class="cls-4" d="M55.23,12.89l2.36,6.64c.05,.15,.03,.31-.05,.43-.06,.1-.15,.18-.26,.22l-6.63,2.36c-.27,.1-.57-.04-.66-.31l-2.36-6.64c-.09-.26,.05-.56,.32-.65l6.63-2.36c.11-.04,.23-.04,.34,0,.14,.06,.26,.16,.31,.31Z"/>
        <path d="M55.25,12.88c.63,1.75,1.4,3.67,2.05,5.43,.1,.37,.44,1.04,.45,1.43-.02,.2-.13,.39-.3,.5-1.27,.46-2.46,.83-3.69,1.26-1.06,.34-2.14,.79-3.2,1.14-.4,.09-.67-.3-.74-.62-.11-.28-.39-1.07-.51-1.36-.34-.9-1.01-2.72-1.34-3.63,0,0-.33-.91-.33-.91-.1-.31-.34-.74-.1-1.06,.2-.33,.63-.34,.93-.48,.57-.22,2.15-.72,2.75-.92,.61-.19,2.17-.72,2.76-.9,.42-.14,1.03-.47,1.26,.13h0Zm-.03,.01c-.24-.57-.81-.22-1.21-.08-.57,.21-2.12,.82-2.71,1.04-.59,.24-2.14,.81-2.72,1.02-.41,.17-.95,.2-.8,.69,.09,.29,.39,1.07,.48,1.37,.63,1.72,1.24,3.79,1.9,5.44,.23,.24,.55,.07,.82-.02,2.1-.7,4.29-1.53,6.32-2.32,.26-.19,.18-.43,.06-.72,0,0-.32-.91-.32-.91-.61-1.78-1.21-3.75-1.83-5.5h0Z"/>
      </g>
      <path class="cls-18" d="M54.92,12.58l-4.62,9.89s-.14-.06-.15-.13l-2.38-6.83s-.08-.31,.31-.45,6.41-2.42,6.41-2.42c0,0,.24-.08,.44-.06Z"/>
      <path d="M55.24,12.88c.86,2.13,1.67,4.27,2.33,6.47,.07,.17,.04,.37-.07,.52,0,0-.05-.02-.05-.02l-2.82-1.27c-.48-.97-.78-2.11-1.18-3.15,.16-.66,1.01-1.92,1.43-2.86,.05-.07,.33,.2,.35,.31h0Zm-.03,.01c-.04-.19-.36-.29-.27-.3-.42,.94-.77,1.91-1.19,2.85v-.11c.38,1.02,.74,2.05,1.09,3.08l-.07-.08s2.75,1.42,2.75,1.42-.07,.02-.07,.02c.18-.24-.02-.54-.11-.83-.84-1.98-1.47-4.02-2.11-6.06h0Z"/>
      <path d="M57.39,20.16c-2.17,.88-4.37,1.7-6.61,2.38-.17,.07-.38,.04-.54-.06,0,0,.02-.05,.02-.05l1.32-2.83c1-.49,2.16-.8,3.22-1.2,.7,.18,1.98,1.02,2.91,1.41,.07,.05-.2,.34-.32,.35h0Zm-.01-.03c.2-.04,.3-.37,.31-.28-.96-.41-1.94-.76-2.9-1.18h.11c-1.04,.39-2.1,.76-3.15,1.11,0,0,.08-.07,.08-.07l-1.47,2.76s-.02-.07-.02-.07c.25,.18,.55-.02,.85-.12,2.02-.85,4.11-1.5,6.19-2.16h0Z"/>
      <path d="M49.97,22.23c-.88-2.17-1.7-4.37-2.38-6.61-.07-.17-.04-.38,.06-.54,0,0,.05,.02,.05,.02l2.83,1.32c.49,1,.8,2.16,1.2,3.22-.18,.7-1.02,1.98-1.41,2.91-.05,.07-.34-.2-.35-.32h0Zm.03-.01c.04,.2,.37,.3,.28,.31,.41-.96,.76-1.94,1.18-2.9v.11c-.39-1.04-.76-2.1-1.11-3.15l.07,.08-2.76-1.47s.07-.02,.07-.02c-.18,.25,.02,.55,.12,.85,.85,2.02,1.5,4.11,2.16,6.19h0Z"/>
      <path d="M47.88,14.88c2.17-.88,4.36-1.7,6.6-2.38,.18-.09,.38,0,.53,.09,0,0-.02,.05-.02,.05l-1.3,2.8c-1,.49-2.16,.8-3.22,1.2-.7-.18-1.98-1.02-2.91-1.41-.07-.05,.2-.34,.32-.35h0Zm.01,.03c-.2,.04-.3,.37-.31,.28,.96,.41,1.94,.76,2.9,1.18h-.11c1.04-.39,2.1-.76,3.15-1.11l-.08,.07,1.45-2.73,.02,.07c-.25-.22-.54,0-.84,.09-2.02,.85-4.1,1.5-6.19,2.16h0Z"/>
    </g>
    <g id="Forme_5-2" data-name="Forme 5">
      <g>
        <path class="cls-8" d="M74.57,15.5l-2.27,2.57-1.21-1.07,2.21-2.49c.66-.75,.59-1.89-.16-2.56s-1.88-.59-2.55,.16l-2.21,2.49-1.21-1.07,2.27-2.57c1.25-1.42,3.42-1.55,4.83-.3,.71,.63,1.1,1.48,1.15,2.37,.05,.88-.23,1.76-.86,2.47Z"/>
        <path d="M74.58,15.51c-.77,.88-1.53,1.76-2.28,2.66,0,0-.06-.05-.06-.05l-1.24-1.04s-.09-.07-.09-.07c.94-1.46,3.96-3.15,2.17-5-.76-.72-2.04-.54-2.62,.32,0,0-2.02,2.33-2.02,2.33-.07,.08-.04,.09-.13,0,0,0-1.23-1.05-1.23-1.05-.09-.09-.13-.04-.01-.17,0,0,2.34-2.68,2.34-2.68,3.27-3.28,8.14,1.23,5.17,4.74h0Zm-.02-.02c2.77-3.3-1.9-7.54-4.92-4.51,0,0-2.38,2.63-2.38,2.63v-.17s1.19,1.09,1.19,1.09h-.13s2.07-2.28,2.07-2.28c.63-.87,1.98-1.11,2.81-.36,1.94,1.87-.91,3.75-2.02,5.18,0,0,0-.16,0-.16l1.19,1.1s-.11,0-.11,0c.79-.83,1.56-1.68,2.32-2.53h0Z"/>
      </g>
      <g>
        <rect class="cls-8" x="62.71" y="14.51" width="8.53" height="8.8" transform="translate(8.42 56.52) rotate(-48.48)"/>
        <path d="M66.5,12.79c2.22,1.86,4.54,3.82,6.76,5.84,0,0-.08,.09-.08,.09l-2.88,3.15c-.98,1.07-1.9,2.18-2.86,3.27,0,0-.06-.05-.06-.05-2.27-1.94-4.53-3.89-6.75-5.88,1.68-1.93,4.12-4.51,5.87-6.41h0Zm0,.03c-1.62,1.91-3.91,4.63-5.54,6.47,0,0-.01-.22-.01-.22,2.21,1.93,4.37,3.91,6.54,5.88h-.12c.95-1.05,1.92-2.09,2.85-3.17l2.78-3.24v.17c-2.18-1.9-4.29-3.86-6.49-5.91h0Z"/>
      </g>
      <g>
        <path class="cls-3" d="M73.8,13.56s.77-2.86-1.61-3.62c0,0-1.4-.23-2.75,1.24l-2.1,2.32,1.08,.9,2.08-2.32s.94-1.07,2.35-.45c0,0,1.28,.74,.95,1.93Z"/>
        <polygon class="cls-3" points="69.6 15.69 64.09 21.87 61.03 19.16 66.51 12.82 69.6 15.69"/>
      </g>
      <line class="cls-13" x1="67.46" y1="13.65" x2="61.8" y2="20.04"/>
      <line class="cls-13" x1="68.29" y1="14.38" x2="62.63" y2="20.77"/>
      <line class="cls-13" x1="71.31" y1="17.06" x2="65.66" y2="23.45"/>
      <line class="cls-13" x1="72.14" y1="17.8" x2="66.49" y2="24.18"/>
      <line class="cls-13" x1="65.69" y1="17.31" x2="68.72" y2="19.99"/>
      <line class="cls-13" x1="65.08" y1="18.01" x2="68.11" y2="20.69"/>
      <line class="cls-13" x1="66.31" y1="16.62" x2="69.33" y2="19.3"/>
      <g>
        <line class="cls-2" x1="66.51" y1="12.82" x2="69.61" y2="15.55"/>
        <path d="M66.51,12.82c.52,.27,1.16,.93,1.6,1.31,.43,.4,1.15,.95,1.49,1.43-.52-.27-1.16-.93-1.6-1.31-.43-.4-1.15-.95-1.49-1.43h0Z"/>
      </g>
    </g>
    <g id="Forme_6" data-name="Forme 6">
      <g>
        <g>
          <g>
            <path class="cls-6" d="M82.97,13.53c-3.19-.41-6.1,1.85-6.51,5.04s1.84,6.1,5.04,6.51,6.1-1.84,6.51-5.04-1.85-6.1-5.04-6.51Zm-1.24,9.75c-2.19-.28-3.75-2.29-3.47-4.49s2.29-3.74,4.48-3.46,3.74,2.28,3.46,4.47-2.28,3.75-4.48,3.47Z"/>
            <g>
              <path d="M82.97,13.54c-7.44-.68-8.99,10.36-1.46,11.45,7.49,.64,8.84-10.19,1.46-11.45h0Zm0-.03c5.22,.59,7.11,7.31,2.9,10.5-2.5,1.99-6.4,1.4-8.29-1.12-3.29-4.11,.19-10.13,5.39-9.39h0Z"/>
              <path d="M81.72,23.29c-5.48-.86-4.35-8.43,1.02-8.04,5.44,.77,4.45,8.64-1.02,8.04h0Zm0-.03c5.05,.44,6.01-7.01,.99-7.85-5.16-.63-5.98,7.04-.99,7.85h0Z"/>
            </g>
          </g>
          <g>
            <rect class="cls-6" x="75.46" y="18.33" width="13.56" height="1.96" transform="translate(-1.72 28.64) rotate(-19.56)"/>
            <path d="M88.29,16.13c-4.19,1.62-8.71,3.27-12.71,4.5,0,0,.68,1.84,.68,1.84,0,0-.1-.05-.1-.05,2.11-.8,4.23-1.58,6.36-2.34,2.02-.64,4.61-1.74,6.37-2.1,0,0-.59-1.86-.59-1.86h0Zm.01-.03l.72,1.83,.03,.07c-4.25,1.62-8.53,3.14-12.84,4.57,0,0-.08,.03-.08,.03,0,0-.03-.08-.03-.08l-.63-1.85c4.02-1.62,8.63-3.21,12.84-4.57h0Z"/>
          </g>
          <g>
            <ellipse class="cls-6" cx="82.23" cy="19.29" rx="1.44" ry="2.15" transform="translate(-1.71 28.64) rotate(-19.56)"/>
            <path d="M83.6,18.8c1.05,2.88-1.67,3.72-2.81,1-1.09-2.8,1.88-3.93,2.81-1h0Zm-.03,.01c-1.07-2.43-3.36-1.55-2.63,.93,.81,2.54,3.4,1.6,2.63-.93h0Z"/>
          </g>
          <path class="cls-14" d="M80.94,19.7c-.24-.85-.12-1.62,.27-1.74s.91,.48,1.16,1.32-.12,1.2-.52,1.31-.67-.05-.91-.9Z"/>
          <path d="M82.1,18.6c.35,.47,1.05,2.17-.13,1.92,.05-.1,.31-.11,.34-.33,.18-.5-.14-1.13-.2-1.59h0Z"/>
        </g>
        <g>
          <path class="cls-14" d="M81.28,20.68l-2.46,.87-1.75,.62-.98,.35-.65-1.85,.98-.35,1.74-.62,2.45-.86c0,.31,.06,.63,.18,.96,.12,.34,.29,.64,.49,.88Z"/>
          <path d="M81.29,20.69c-1.62,.73-3.5,1.38-5.24,1.9-.21-.67-.47-1.31-.72-1.96,0,0,.08-.03,.08-.03,1.75-.71,3.52-1.36,5.32-1.92-.02,.71,.16,1.41,.57,2.01h0Zm-.03,0c-.47-.47-.74-1.17-.78-1.83,0,0,.16,.11,.16,.11-1.7,.66-3.43,1.25-5.18,1.79,0,0,.05-.1,.05-.1,.19,.62,.39,1.25,.62,1.86l-.07-.03c1.73-.73,3.33-1.29,5.19-1.79h0Z"/>
        </g>
      </g>
      <path class="cls-16" d="M78.11,19.56c-.15-3.74,4.72-6.02,4.72-6.02,0,0-3.39-.52-5.32,2.56,0,0-1.28,2.12-.91,4.01l1.51-.55Z"/>
      <path class="cls-16" d="M78.85,21.68s.03,2.04,2.24,3.24c0,0-2.64-.39-3.84-2.7l1.6-.54Z"/>
    </g>
    <g id="Forme_7" data-name="Forme 7">
      <polygon class="cls-15" points="97.52 9.07 94.55 14.87 100.18 17.76 103.17 11.96 97.52 9.07"/>
      <path class="cls-16" d="M97.46,9.19l1.25,3.96s-.95,2.93-2.73,2.28l-1.42-.59,2.9-5.66Z"/>
      <path d="M100.2,17.77c-1.73-.77-4.04-1.99-5.66-2.89,1.49-.58,2.96-1.21,4.46-1.76,.42,1.38,.84,3.24,1.2,4.65h0Zm-.02-.02c-.42-1.27-1.07-3.11-1.44-4.37,0,0,.21,.1,.21,.1-1.41,.52-2.85,.96-4.27,1.46,0,0,0-.09,0-.09,1.64,.78,3.92,1.97,5.49,2.9h0Z"/>
      <path d="M97.46,9.03c1.75,.79,4.07,2.03,5.7,2.94-1.48,.5-2.94,1.06-4.42,1.54-.44-1.32-.9-3.12-1.28-4.47h0Zm.02,.02c.44,1.22,1.13,2.99,1.51,4.2,0,0-.2-.1-.2-.1,1.4-.45,2.82-.82,4.22-1.24-1.46-.42-4-2.03-5.54-2.86h0Z"/>
      <path d="M94.54,14.88c.8-1.78,2.05-4.16,2.97-5.83,.48,1.37,1.02,2.72,1.49,4.1,0,0,.05,.14,.05,.14l-.14,.05c-1.27,.51-3.07,1.08-4.37,1.53h0Zm.02-.02c1.23-.53,3.01-1.34,4.24-1.81,0,0-.09,.2-.09,.2-.44-1.34-.82-2.71-1.25-4.05-.43,1.49-2.06,4.09-2.9,5.66h0Z"/>
      <path d="M103.17,11.94c-.8,1.78-2.05,4.15-2.96,5.82-.45-1.4-.95-2.79-1.38-4.2,0,0-.04-.14-.04-.14l.14-.05c1.24-.48,2.98-1.01,4.25-1.43h0Zm-.02,.02c-1.2,.5-2.93,1.27-4.12,1.7,0,0,.1-.19,.1-.19,.41,1.37,.75,2.76,1.14,4.14,.42-1.49,2.05-4.08,2.88-5.65h0Z"/>
      <g>
        <line class="cls-2" x1="103.15" y1="11.95" x2="100.19" y2="17.76"/>
        <path d="M103.15,11.95c-.23,.91-.97,2.11-1.37,2.96-.24,.48-.88,1.71-1.11,2.18,0,0-.48,.67-.48,.67l.26-.78c.23-.46,.87-1.7,1.11-2.18,.45-.83,.99-2.13,1.59-2.85h0Z"/>
      </g>
    </g>
    <g id="Forme_8" data-name="Forme 8">
      <path d="M106.33,20.18c-.94,.03-1.05,1.76,0,1.65,.93-.1,.97-1.54,0-1.65h0Zm0-.03c1.39-.06,1.33,1.91,0,1.84-1.23-.15-1.39-1.85,0-1.84h0Z"/>
      <g>
        <path class="cls-8" d="M116,10.86l-7.09,5.87-.2,.08c-.47-.19-.98-.3-1.52-.3-2.23,0-4.03,1.81-4.03,4.03s1.81,4.03,4.03,4.03,4.03-1.81,4.03-4.03c0-.7-.2-1.35-.51-1.93h1.97v-.35h.51v-1.85h1.44v-1.18h1.31v-.8h1.09v-.8h.57v-.61h.51v-2.01l-2.11-.16Zm-9.68,11.05c-.48,0-.87-.39-.87-.87s.39-.87,.87-.87,.87,.39,.87,.87-.39,.87-.87,.87Z"/>
        <g>
          <path d="M116.01,10.87c-2.33,2.04-4.69,3.99-7.02,5.97-.04,.02-.23,.09-.27,.11-1.71-.76-3.88-.1-4.86,1.5-2.37,3.74,2.34,7.93,5.79,5.16,1.53-1.2,1.92-3.54,.83-5.14,0,0,.24,0,.24,0h1.97s-.14,.14-.14,.14v-.35c0-.18-.03-.14,.14-.14,0,0,.51,0,.51,0l-.14,.14v-1.85s0-.15,0-.15h.15s1.44,0,1.44,0l-.15,.15v-1.15s0-.16,0-.18c.05,0,1.37,.02,1.46,.02,0,0-.13,.13-.13,.13,0-.07,.01-.87,.01-.92,0,0,.12,0,.12,0h1.08s-.11,.12-.11,.12c0-.05,.02-.86,.01-.89,.08,0,.58,.01,.67,0,0,0-.09,.09-.09,.09v-.61s0-.08,0-.08c.09,0,.5,.01,.59,0,0,0-.07,.07-.07,.07l.03-2.01s.04,.04,.04,.04l-2.1-.19h0Zm0-.03s2.11,.13,2.11,.13h.04s0,.04,0,.04l.03,2.01c0,.09,.01,.07-.07,.07,0,0-.51,0-.51,0,0,0,.08-.08,.08-.08,0,.06,.01,.66,0,.69,0,0-.09,0-.09,0h-.57s.09-.09,.09-.09c0,.06,.01,.87,.01,.9,0,0-.11,0-.11,0h-1.08s.12-.11,.12-.11c0,.09,0,.86,.01,.93,0,0-.13,0-.13,0l-1.31,.02,.15-.15v.03c0,.08,0,1.27,0,1.3,0,0-.15,0-.15,0h-1.44s.15-.15,.15-.15v1.85s0,.14,0,.14c-.1,0-.55,0-.65,0,0,0,.14-.14,.14-.14,0,.09,0,.41,0,.49,0,0-.14,0-.14,0,0,0-1.97,0-1.97,0l.12-.21c1.01,1.71,.5,4.05-1.07,5.23-3.59,2.78-8.42-1.53-6.06-5.41,.98-1.68,3.25-2.46,5.06-1.67,1.91-1.56,4.93-4.04,7.23-5.85h0Z"/>
          <path d="M106.33,21.92c-1.39,0-1.22-1.7,0-1.84,1.33-.07,1.39,1.9,0,1.84h0Zm0-.03c.97-.1,.93-1.55,0-1.65-1.05-.12-.94,1.62,0,1.65h0Z"/>
        </g>
      </g>
      <path class="cls-14" d="M103.8,22.57s-1.35-6.21,5.84-4.86c0,0,8.09-6.73,7.58-6.77-.1,0-1.24-.08-1.24-.08l-7,5.97-.26,.13s-2.52-1.18-4.56,1.07c0,0-1.86,2.07-.36,4.54Z"/>
    </g>
  </g>
  <g>
    <g>
      <rect class="cls-2" x="160.6" y="7.12" width="115.49" height="17.36" rx="4.59" ry="4.59"/>
      <path d="M271.5,7.13c-31.03,.08-65.47,.15-96.68,.04,0,0-8.06,0-8.06,0-3.9-.4-6.5,1.76-6.1,5.83,0,1.28,.02,4.72,.01,6.04-.34,2.7,1.68,5.41,4.51,5.35,0,0,64.45-.06,64.45-.06,5.81,0,35.08,.05,40.28,.08,3.9,.42,6.5-1.74,6.12-5.81,0,0,0-2.01,0-2.01-.05-1.4,.16-4.69-.14-6.02-.47-1.97-2.38-3.45-4.41-3.43h0Zm0-.03c2.04-.03,3.98,1.45,4.46,3.45,.32,1.32,.09,4.64,.17,6.04-.02,1.19,.07,2.86-.05,4.03-.5,3.09-3.31,4.23-6.15,3.93-25.07,.11-79.11,.05-104.74,.02-2.07,.02-4.03-1.49-4.51-3.51-.32-1.34-.07-4.64-.14-6.05,.03-1.19-.06-2.86,.07-4.03,.51-3.08,3.32-4.22,6.16-3.91,0,0,8.06,0,8.06,0,31.26-.1,65.6-.05,96.68,.04h0Z"/>
    </g>
    <g id="Forme_1-2" data-name="Forme 1">
      <g>
        <path class="cls-5" d="M261.95,16.79c0,2.79,2.26,5.05,5.05,5.05s5.05-2.26,5.05-5.05c0-2.79-2.26-5.05-5.05-5.05s-5.05,2.26-5.05,5.05Zm1.86,0c0-1.76,1.43-3.19,3.19-3.19s3.19,1.43,3.19,3.19-1.43,3.19-3.19,3.19-3.19-1.43-3.19-3.19Z"/>
        <g>
          <path d="M261.97,16.79c.23,6.44,9.91,6.59,10,0-.28-6.47-9.73-6.46-10,0h0Zm-.03,0c.14-6.89,10.07-6.87,10.2,0-.32,6.76-10.02,6.9-10.2,0h0Z"/>
          <path d="M263.8,16.79c.1-4.46,6.24-4.29,6.48,0-.03,4.4-6.45,4.43-6.48,0h0Zm.03,0c.17,3.99,6.1,4.01,6.29,0,0-4.13-6.15-3.98-6.29,0h0Z"/>
        </g>
      </g>
      <g>
        <ellipse class="cls-5" cx="268" cy="12.92" rx="2.32" ry="1.79" transform="translate(155.05 256.3) rotate(-67.86)"/>
        <path d="M266.35,12.25c-1.06,2.74,2.06,4.05,3.2,1.3,.98-2.68-1.97-3.91-3.2-1.3h0Zm-.03-.01c1.21-3.04,4.65-1.59,3.45,1.4-1.28,2.86-4.58,1.56-3.45-1.4h0Z"/>
      </g>
      <path d="M267.83,11.86c.03,.7-.53,2.11,.6,2.09-1.3,.55-1.08-1.46-.6-2.09h0Z"/>
      <path class="cls-9" d="M268.58,10.84s-.72-.11-.86,2.11c0,0-.18,1.08,.7,1.04,0,0,1.46,.77,1.39-1.58,0,0-.08-1.23-1.23-1.57Z"/>
      <path class="cls-9" d="M270.25,20.59s.27-4.1-.11-4.75c0,0-.33-1.06-.85-1.39,0,0,.39-.34,.63-1.79,0,0,1.82,1.41,2.03,3.77,0,0,.36,2.66-1.7,4.15Z"/>
    </g>
    <g id="Forme_2-2" data-name="Forme 2">
      <g>
        <path class="cls-1" d="M248.74,19.08c.85,.82,1.95,1.22,3.04,1.2,1.1-.02,2.19-.46,3.01-1.31l3.92-4.04c1.64-1.69,1.6-4.4-.1-6.04-.85-.82-1.96-1.23-3.05-1.21-1.09,.02-2.18,.45-3,1.3l-3.92,4.04c-1.64,1.69-1.61,4.4,.1,6.05Zm4.24-7.08c-.14-.13-.14-.36,0-.49l1.31-1.35c.42-.44,.99-.67,1.57-.68,.57,0,1.14,.2,1.59,.63,.88,.86,.91,2.27,.05,3.15l-1.31,1.35c-.13,.14-.36,.14-.5,0l-2.69-2.61Zm-3.05,5.85c-.45-.43-.67-.99-.68-1.57,0-.57,.2-1.14,.63-1.59l1.3-1.34c.14-.14,.37-.15,.5-.02l2.69,2.61c.14,.14,.15,.37,0,.51l-1.3,1.34c-.86,.88-2.27,.91-3.15,.05Z"/>
        <g>
          <path d="M248.75,19.07c1.14,1.12,2.93,1.46,4.38,.87,1.48-.58,2.38-2.03,3.53-3.06,0,0,1.68-1.69,1.68-1.69,4.5-4.19-1.94-10.34-5.98-5.79,0,0-1.65,1.71-1.65,1.71-1,1.18-2.45,2.1-2.97,3.61-.53,1.47-.14,3.24,1.01,4.35h0Zm-.02,.02c-1.16-1.1-1.65-2.87-1.17-4.43,.47-1.58,1.88-2.57,2.93-3.75,0,0,1.66-1.71,1.66-1.71,4.26-4.73,10.81,1.69,6.31,6.1,0,0-1.64,1.73-1.64,1.73-1.14,1.1-2.06,2.56-3.63,3.08-1.54,.53-3.33,.1-4.46-1.02h0Z"/>
          <path d="M252.96,12.02c-.31-.3,.07-.62,.27-.84,0,0,.64-.74,.64-.74,2.14-2.91,6.04,.76,3.47,3.16,0,0-.67,.71-.67,.71-.25,.22-.51,.7-.94,.53-1.01-.78-1.84-1.94-2.78-2.83h0Zm.02-.02c.91,.84,1.96,1.74,2.87,2.56,.19,.08,.38-.26,.61-.46,0,0,.69-.69,.69-.69,2.54-2.33-.93-5.42-3.14-2.83,0,0-.72,.66-.72,.66-.21,.2-.58,.47-.31,.76h0Z"/>
          <path d="M249.91,17.87c-1.05-.93-.97-2.7,.15-3.54,0,0,.71-.67,.71-.67,.22-.19,.54-.64,.87-.4,0,0,1.44,1.34,1.44,1.34,.49,.45,.96,.84,1.46,1.35,.13,.19,.11,.47-.06,.63l-.33,.36-.68,.7c-.81,1.12-2.6,1.26-3.56,.24h0Zm.02-.02c.99,.95,2.53,.6,3.31-.44,0,0,.68-.7,.68-.7,.1-.14,.54-.4,.38-.61-.8-.8-1.89-2-2.71-2.75-.29-.17-.48,.21-.7,.43l-.65,.73c-.99,.84-1.3,2.39-.31,3.34h0Z"/>
        </g>
      </g>
      <path class="cls-9" d="M257.55,15.98s1.18-3.76,.46-5.14c0,0-.29-2.44-2.01-3.03,0,0,2.65,.14,3.59,2.84,0,0,.77,1.74-.23,3.26,0,0-.6,1.01-1.81,2.06Z"/>
    </g>
    <g id="Forme_3-6" data-name="Forme 3">
      <g>
        <circle class="cls-17" cx="241.89" cy="12.04" r="2.06"/>
        <path d="M243.34,13.49c1.83-1.9-.97-4.65-2.82-2.82-1.73,1.85,.98,4.54,2.82,2.82h0Zm.02,.02c-2.04,2.05-5.05-.91-3.01-3.01,2.08-1.92,4.94,.98,3.01,3.01h0Z"/>
      </g>
      <path d="M241.01,11.45c-.06,.44-.01,.92,.24,1.23,.3,.32,.69,.38,1.11,.53-.38,.26-1.08,.04-1.3-.4-.24-.41-.25-1.05-.04-1.37h0Z"/>
      <ellipse class="cls-18" cx="243.3" cy="11.96" rx=".65" ry="1" transform="translate(-.11 21.46) rotate(-5.05)"/>
    </g>
    <g id="Forme_3-7" data-name="Forme 3">
      <g>
        <circle class="cls-17" cx="191.35" cy="20.15" r="2.75"/>
        <path d="M193.28,22.09c2.43-2.57-1.25-6.25-3.8-3.8-2.35,2.52,1.27,6.13,3.8,3.8h0Zm.02,.02c-2.74,2.68-6.64-1.25-3.99-3.99,2.73-2.55,6.55,1.31,3.99,3.99h0Z"/>
      </g>
      <path d="M190.17,19.37c-.09,.58-.05,1.23,.29,1.67,.38,.46,.95,.54,1.51,.69,0,0,0,.03,0,.03-1.54,.45-2.37-1.21-1.8-2.4h0Z"/>
      <ellipse class="cls-18" cx="193.23" cy="20.05" rx=".86" ry="1.34" transform="translate(-1.01 17.08) rotate(-5.05)"/>
    </g>
    <g id="Forme_3-8" data-name="Forme 3">
      <g>
        <circle class="cls-12" cx="244.94" cy="20.86" r="2.34"/>
        <path d="M246.99,21.94c1.34-2.7-2.59-4.74-4.02-2.12-1.26,2.62,2.57,4.62,4.02,2.12h0Zm.03,.01c-1.56,2.89-5.75,.66-4.26-2.25,1.62-2.77,5.65-.61,4.26,2.25h0Z"/>
      </g>
      <path d="M243.78,20.52c.08,.5,.28,1.01,.67,1.27,.43,.26,.89,.19,1.39,.2,0,0,0,.03,0,.03-1.13,.81-2.26-.41-2.07-1.5h0Z"/>
      <ellipse class="cls-18" cx="246.44" cy="20.3" rx=".73" ry="1.14" transform="translate(10.61 94.66) rotate(-22.21)"/>
    </g>
    <g id="Forme_3-9" data-name="Forme 3">
      <g>
        <circle class="cls-11" cx="167.04" cy="19.94" r="2.06"/>
        <path d="M168.49,21.39c1.83-1.9-.97-4.65-2.82-2.82-1.73,1.85,.98,4.54,2.82,2.82h0Zm.02,.02c-2.04,2.05-5.05-.91-3.01-3.01,2.08-1.92,4.94,.98,3.01,3.01h0Z"/>
      </g>
      <path d="M166.16,19.35c-.06,.44-.01,.92,.24,1.23,.3,.32,.69,.38,1.11,.53-.38,.26-1.08,.04-1.3-.4-.24-.41-.25-1.05-.04-1.37h0Z"/>
      <ellipse class="cls-18" cx="168.46" cy="19.86" rx=".65" ry="1" transform="translate(-1.09 14.9) rotate(-5.05)"/>
    </g>
    <g id="Forme_3-10" data-name="Forme 3">
      <g>
        <circle class="cls-10" cx="225.38" cy="9.88" r="2.06"/>
        <path d="M226.83,11.32c1.83-1.9-.97-4.65-2.82-2.82-1.73,1.85,.98,4.54,2.82,2.82h0Zm.02,.02c-2.04,2.05-5.05-.91-3.01-3.01,2.08-1.92,4.94,.98,3.01,3.01h0Z"/>
      </g>
      <path d="M224.5,9.29c-.06,.44-.01,.92,.24,1.23,.3,.32,.69,.38,1.11,.53-.38,.26-1.08,.04-1.3-.4-.24-.41-.25-1.05-.04-1.37h0Z"/>
      <ellipse class="cls-18" cx="226.79" cy="9.8" rx=".65" ry="1" transform="translate(.02 20) rotate(-5.05)"/>
    </g>
    <g id="Forme_4-2" data-name="Forme 4">
      <g>
        <path class="cls-4" d="M229.91,11.15l-2.36,6.64c-.05,.15-.03,.31,.05,.43,.06,.1,.15,.18,.26,.22l6.63,2.36c.27,.1,.57-.04,.66-.31l2.36-6.64c.09-.26-.05-.56-.32-.65l-6.63-2.36c-.11-.04-.23-.04-.34,0-.14,.06-.26,.16-.31,.31Z"/>
        <path d="M229.92,11.16c-.62,1.76-1.23,3.73-1.83,5.5,0,0-.32,.91-.32,.91-.12,.29-.2,.53,.06,.72,2.04,.79,4.22,1.62,6.32,2.32,.28,.09,.59,.26,.82,.02,.47-1.11,.83-2.42,1.26-3.61l.63-1.83c.09-.3,.39-1.08,.48-1.37,.16-.49-.39-.51-.8-.69-.57-.2-2.13-.78-2.72-1.02-.6-.22-2.13-.83-2.71-1.04-.4-.14-.98-.49-1.21,.08h0Zm-.03-.01c.24-.6,.84-.27,1.26-.13,.58,.18,2.16,.71,2.76,.9,.6,.21,2.17,.7,2.75,.92,.3,.14,.73,.15,.93,.48,.23,.31,0,.74-.1,1.06,0,0-.33,.91-.33,.91-.33,.91-1,2.73-1.34,3.63-.12,.29-.39,1.08-.51,1.36-.07,.31-.35,.71-.74,.62-1.06-.35-2.14-.8-3.2-1.14-1.23-.43-2.42-.8-3.69-1.26-.17-.11-.28-.29-.3-.5,.01-.39,.35-1.06,.45-1.43,.65-1.76,1.42-3.67,2.05-5.43h0Z"/>
      </g>
      <path class="cls-18" d="M230.22,10.84l4.62,9.89s.14-.06,.15-.13l2.38-6.83s.08-.31-.31-.45-6.41-2.42-6.41-2.42c0,0-.24-.08-.44-.06Z"/>
      <path d="M229.92,11.15c-.64,2.04-1.28,4.08-2.11,6.06-.09,.29-.3,.58-.11,.83,0,0-.07-.02-.07-.02l2.75-1.42-.07,.08c.34-1.03,.7-2.06,1.08-3.08v.11c-.38-.91-.86-2.01-1.16-2.84-.13,.05-.25,.15-.3,.29h0Zm-.03-.01c.02-.13,.3-.38,.35-.31,.41,.93,1.26,2.2,1.43,2.86-.39,1.04-.69,2.18-1.18,3.15,0,0-2.82,1.27-2.82,1.27,0,0-.05,.02-.05,.02-.1-.15-.14-.36-.07-.52,.66-2.2,1.47-4.34,2.33-6.47h0Z"/>
      <path d="M227.76,18.39c2.09,.66,4.17,1.31,6.19,2.16,.29,.09,.6,.3,.85,.12l-.02,.07-1.47-2.76,.08,.07c-1.06-.35-2.11-.72-3.15-1.1,0,0,.11,0,.11,0-.92,.38-2.04,.85-2.89,1.15,.05,.14,.16,.26,.3,.31h0Zm-.01,.03c-.13-.02-.39-.3-.32-.35,.92-.39,2.21-1.23,2.91-1.41,1.06,.4,2.22,.71,3.22,1.2,0,0,1.32,2.83,1.32,2.83l.02,.05c-.16,.11-.37,.14-.54,.06-2.25-.68-4.44-1.5-6.61-2.38h0Z"/>
      <path d="M235.14,20.49c.66-2.09,1.31-4.17,2.16-6.19,.09-.29,.3-.6,.12-.85l.07,.02-2.76,1.47,.07-.08c-.35,1.06-.72,2.11-1.1,3.15v-.11c.37,.92,.85,2.04,1.14,2.89,.14-.05,.26-.16,.31-.3h0Zm.03,.01c-.02,.13-.3,.39-.35,.32-.39-.92-1.23-2.21-1.41-2.91,.4-1.06,.71-2.22,1.2-3.22,0,0,2.83-1.32,2.83-1.32l.05-.02c.1,.16,.14,.37,.06,.54-.68,2.25-1.5,4.44-2.38,6.61h0Z"/>
      <path d="M237.24,13.17c-2.08-.66-4.17-1.31-6.19-2.16-.3-.09-.59-.31-.84-.09l.02-.07,1.45,2.73-.08-.07c1.06,.35,2.11,.72,3.15,1.1h-.11c.92-.37,2.04-.85,2.89-1.14-.05-.14-.16-.26-.3-.31h0Zm.01-.03c.13,.02,.39,.3,.32,.35-.92,.39-2.21,1.23-2.91,1.41-1.06-.4-2.22-.71-3.22-1.2,0,0-1.3-2.8-1.3-2.8l-.02-.05c.14-.1,.35-.18,.53-.09,2.24,.68,4.43,1.5,6.6,2.38h0Z"/>
    </g>
    <g id="Forme_5-3" data-name="Forme 5">
      <g>
        <path class="cls-8" d="M210.56,13.76l2.27,2.57,1.21-1.07-2.21-2.49c-.66-.75-.59-1.89,.16-2.56s1.88-.59,2.55,.16l2.21,2.49,1.21-1.07-2.27-2.57c-1.25-1.42-3.42-1.55-4.83-.3-.71,.63-1.1,1.48-1.15,2.37-.05,.88,.23,1.76,.86,2.47Z"/>
        <path d="M210.58,13.75c.76,.85,1.53,1.7,2.32,2.53h-.11s1.19-1.11,1.19-1.11v.16c-1.11-1.43-3.97-3.31-2.03-5.18,.82-.75,2.18-.51,2.81,.36,0,0,2.07,2.28,2.07,2.28h-.13s1.2-1.1,1.2-1.1v.17s-2.39-2.63-2.39-2.63c-3.02-3.03-7.69,1.21-4.92,4.51h0Zm-.02,.02c-2.97-3.51,1.9-8.02,5.17-4.74,0,0,2.34,2.68,2.34,2.68,.08,.11,.12,.06-.01,.17,0,0-1.23,1.05-1.23,1.05-.09,.07-.06,.08-.13,0,0,0-2.02-2.33-2.02-2.33-.58-.86-1.87-1.04-2.62-.32-1.79,1.85,1.23,3.55,2.17,5,0,0-.09,.07-.09,.07l-1.24,1.04s-.06,.05-.06,.05c-.75-.9-1.51-1.79-2.28-2.66h0Z"/>
      </g>
      <g>
        <rect class="cls-8" x="213.77" y="12.91" width="8.8" height="8.53" transform="translate(43.43 148.93) rotate(-41.52)"/>
        <path d="M218.64,11.08c-2.2,2.05-4.31,4.01-6.5,5.91v-.17s2.79,3.24,2.79,3.24c.92,1.08,1.9,2.12,2.85,3.17h-.12c2.16-1.99,4.33-3.96,6.54-5.89v.22c-1.63-1.83-3.94-4.58-5.55-6.47h0Zm0-.03c1.75,1.92,4.18,4.48,5.87,6.41-2.22,1.99-4.48,3.94-6.75,5.88,0,0-.06,.05-.06,.05-.96-1.09-1.88-2.2-2.86-3.27,0,0-2.88-3.15-2.88-3.15,0,0-.08-.09-.08-.09,2.22-2.01,4.54-3.98,6.76-5.84h0Z"/>
      </g>
      <g>
        <path class="cls-3" d="M211.33,11.83s-.77-2.86,1.61-3.62c0,0,1.4-.23,2.75,1.24l2.1,2.32-1.08,.9-2.08-2.32s-.94-1.07-2.35-.45c0,0-1.28,.74-.95,1.93Z"/>
        <polygon class="cls-3" points="215.54 13.95 221.04 20.13 224.1 17.42 218.62 11.08 215.54 13.95"/>
      </g>
      <line class="cls-13" x1="217.68" y1="11.91" x2="223.33" y2="18.3"/>
      <line class="cls-13" x1="216.85" y1="12.64" x2="222.5" y2="19.03"/>
      <line class="cls-13" x1="213.83" y1="15.32" x2="219.48" y2="21.71"/>
      <line class="cls-13" x1="213" y1="16.06" x2="218.65" y2="22.44"/>
      <line class="cls-13" x1="219.45" y1="15.57" x2="216.42" y2="18.25"/>
      <line class="cls-13" x1="220.06" y1="16.27" x2="217.03" y2="18.95"/>
      <line class="cls-13" x1="218.83" y1="14.88" x2="215.81" y2="17.56"/>
      <g>
        <line class="cls-2" x1="218.62" y1="11.08" x2="215.53" y2="13.82"/>
        <path d="M218.62,11.08c-.33,.48-1.06,1.04-1.49,1.43-.45,.38-1.09,1.03-1.6,1.31,.34-.48,1.06-1.04,1.49-1.43,.45-.38,1.09-1.03,1.6-1.31h0Z"/>
      </g>
    </g>
    <g id="Forme_6-2" data-name="Forme 6">
      <g>
        <g>
          <g>
            <path class="cls-6" d="M197.13,18.3c.41,3.19,3.33,5.44,6.51,5.04s5.44-3.32,5.04-6.51-3.32-5.44-6.51-5.04-5.44,3.33-5.04,6.51Zm1.81-.23c-.28-2.19,1.27-4.19,3.46-4.47s4.2,1.27,4.48,3.46-1.28,4.21-3.47,4.49-4.2-1.28-4.48-3.47Z"/>
            <g>
              <path d="M197.15,18.3c1.21,7.37,12.29,6.1,11.45-1.46-1.27-7.41-12.08-6-11.45,1.46h0Zm-.03,0c-.74-5.2,5.29-8.72,9.44-5.45,2.55,1.92,2.96,5.84,1,8.31-3.15,4.22-9.85,2.36-10.44-2.86h0Z"/>
              <path d="M198.92,18.07c-.55-5.52,7.08-6.31,8.04-1.02,.6,5.46-7.25,6.48-8.04,1.02h0Zm.03,0c.87,5.02,8.24,4.08,7.85-1-.68-5.14-8.33-4.04-7.85,1h0Z"/>
            </g>
          </g>
          <g>
            <rect class="cls-6" x="201.93" y="10.79" width="1.96" height="13.56" transform="translate(118.43 202.89) rotate(-70.44)"/>
            <path d="M196.84,14.36c4.21,1.36,8.81,2.96,12.84,4.57,0,0-.63,1.85-.63,1.85-.03,.08,0,.09-.11,.05-4.32-1.43-8.6-2.95-12.84-4.57,0,0,.03-.07,.03-.07,0,0,.72-1.83,.72-1.83h0Zm.01,.03l-.59,1.86-.05-.09c4.11,1.44,9.03,2.93,12.67,4.58,0,0,.68-1.84,.68-1.84-4.01-1.23-8.52-2.89-12.71-4.5h0Z"/>
          </g>
          <g>
            <ellipse class="cls-6" cx="202.91" cy="17.55" rx="2.15" ry="1.44" transform="translate(118.45 202.88) rotate(-70.44)"/>
            <path d="M201.56,17.07c-.77,2.53,1.82,3.48,2.63,.93,.73-2.48-1.56-3.36-2.63-.93h0Zm-.03-.01c.3-.88,1.03-2.01,2.14-1.68,1.95,.86,.41,4.71-1.53,4.31-1.08-.42-.93-1.77-.61-2.63h0Z"/>
          </g>
          <path class="cls-14" d="M204.2,17.96c.24-.85,.12-1.62-.27-1.74s-.91,.48-1.16,1.32,.12,1.2,.52,1.31,.67-.05,.91-.9Z"/>
          <path d="M203.06,16.88c-.27,.89-.51,1.58,.11,1.9-.54,.23-.8-.42-.61-.85,.11-.36,.27-.83,.51-1.05h0Z"/>
        </g>
        <g>
          <path class="cls-14" d="M203.86,18.94l2.46,.87,1.75,.62,.98,.35,.65-1.85-.98-.35-1.74-.62-2.45-.86c0,.31-.06,.63-.18,.96-.12,.34-.29,.64-.49,.88Z"/>
          <path d="M203.88,18.94c1.86,.5,3.46,1.07,5.19,1.79,0,0-.07,.03-.07,.03,.24-.61,.43-1.23,.62-1.86l.05,.1c-1.75-.54-3.48-1.13-5.18-1.79l.16-.11c-.04,.67-.3,1.36-.78,1.83h0Zm-.03,0c.41-.6,.59-1.29,.57-2.01,1.8,.56,3.57,1.2,5.32,1.92,0,0,.08,.03,.08,.03-.26,.65-.51,1.3-.72,1.96-1.74-.52-3.62-1.17-5.24-1.9h0Z"/>
        </g>
      </g>
      <path class="cls-16" d="M207.03,17.82c.15-3.74-4.72-5.84-4.72-5.84,0,0,3.39-.7,5.32,2.38,0,0,1.28,2.12,.91,4.01l-1.51-.55Z"/>
      <path class="cls-16" d="M206.28,19.94s-.1,1.97-2.3,3.17c0,0,2.71-.33,3.91-2.63l-1.6-.54Z"/>
    </g>
    <g id="Forme_7-2" data-name="Forme 7">
      <polygon class="cls-15" points="187.61 7.33 190.59 13.13 184.95 16.02 181.97 10.22 187.61 7.33"/>
      <path class="cls-16" d="M187.68,7.45l-1.25,3.96s.95,2.93,2.73,2.28l1.42-.59-2.9-5.66Z"/>
      <path d="M184.96,16.01c1.58-.94,3.85-2.12,5.49-2.9,0,0,0,.09,0,.09-1.42-.49-2.86-.94-4.27-1.46l.21-.1c-.36,1.25-1.02,3.11-1.44,4.37h0Zm-.02,.02c.36-1.41,.78-3.26,1.2-4.65,1.5,.55,2.97,1.18,4.46,1.76-1.61,.89-3.94,2.12-5.66,2.89h0Z"/>
      <path d="M187.66,7.31c-1.54,.83-4.07,2.44-5.54,2.86,1.41,.42,2.83,.8,4.22,1.24l-.2,.1c.38-1.2,1.07-2.99,1.51-4.2h0Zm.02-.02c-.37,1.3-.81,3.05-1.23,4.32,0,0-.05,.15-.05,.15l-.15-.05c-1.43-.47-2.84-1-4.27-1.49,1.62-.9,3.97-2.16,5.7-2.94h0Z"/>
      <path d="M190.58,13.12c-.84-1.58-2.47-4.16-2.9-5.66-.43,1.35-.81,2.71-1.25,4.05l-.09-.2c1.22,.46,3.01,1.28,4.24,1.81h0Zm.02,.02c-1.31-.45-3.09-1.02-4.37-1.53,0,0-.14-.05-.14-.05l.05-.14c.47-1.37,1.01-2.73,1.49-4.1,.92,1.66,2.18,4.05,2.97,5.83h0Z"/>
      <path d="M181.99,10.22c.83,1.58,2.46,4.15,2.88,5.65,.39-1.38,.73-2.77,1.14-4.14l.1,.19c-1.18-.43-2.93-1.21-4.12-1.7h0Zm-.02-.02c1.28,.42,3.01,.94,4.25,1.43,0,0,.14,.05,.14,.05,0,0-.04,.14-.04,.14-.43,1.41-.94,2.8-1.38,4.2-.91-1.66-2.17-4.05-2.96-5.82h0Z"/>
      <g>
        <line class="cls-2" x1="181.98" y1="10.21" x2="184.95" y2="16.02"/>
        <path d="M181.98,10.21c.6,.72,1.14,2.02,1.59,2.85,.24,.48,.88,1.71,1.11,2.18,0,0,.26,.78,.26,.78l-.48-.67c-.23-.46-.87-1.7-1.11-2.18-.41-.85-1.14-2.05-1.37-2.96h0Z"/>
      </g>
    </g>
    <g id="Forme_8-2" data-name="Forme 8">
      <path d="M178.81,18.41c1.39,0,1.22,1.7,0,1.84-1.33,.07-1.39-1.9,0-1.84h0Zm0,.03c-.97,.1-.93,1.55,0,1.65,1.05,.12,.94-1.62,0-1.65h0Z"/>
      <g>
        <path class="cls-8" d="M167.03,9.28v2.01s.51,0,.51,0v.61s.57,0,.57,0v.8s1.09,0,1.09,0v.8s1.31,0,1.31,0v1.18s1.44,0,1.44,0v1.85s.51,0,.51,0v.35s1.97,0,1.97,0c-.32,.58-.51,1.23-.51,1.93,0,2.23,1.81,4.03,4.03,4.03s4.03-1.81,4.03-4.03-1.81-4.03-4.03-4.03c-.54,0-1.05,.11-1.52,.3l-.2-.08-7.09-5.87-2.11,.16Zm10.91,10.02c0-.48,.39-.87,.87-.87s.87,.39,.87,.87-.39,.87-.87,.87-.87-.39-.87-.87Z"/>
        <g>
          <path d="M167.04,9.29l.05,2-.06-.06h.51c.09-.02,.07-.02,.07,.06,0,0,0,.61,0,.61l-.08-.08c.06,0,.62-.01,.66,0,0,0,0,.08,0,.08v.8s-.08-.09-.08-.09h1.08s.1-.01,.1-.01c0,0,0,.1,0,.1v.8s-.1-.1-.1-.1h1.31s.12-.01,.12-.01v.12s.01,1.18,.01,1.18c0,0-.13-.13-.13-.13,0,0,1.44,0,1.44,0,.16,0,.13-.03,.13,.13,0,0-.02,1.85-.02,1.85l-.11-.11c.08,0,.55,0,.62,0,0,.08,0,.37,0,.46,0,0-.11-.11-.11-.11l1.97,.02h.16c-2.39,3.85,2.64,7.97,5.97,4.95,3.21-2.94-.11-8.2-4.13-6.5-.06-.03-.24-.09-.3-.13-2.3-1.92-4.86-4.06-6.99-5.93,0,0-2.1,.11-2.1,.11h0Zm-.02-.02s2.11-.21,2.14-.21c2.39,1.94,4.79,3.86,7.16,5.82-.14-.07,.16,.06,.16,.06,0,0-.11,0-.11,0,4.29-1.73,7.81,3.89,4.32,6.95-2.26,2.1-6.21,.73-6.76-2.27-.2-.94-.05-1.94,.42-2.78l.08,.13-1.97,.02c-.13,0-.1,.02-.11-.11,0,0,0-.35,0-.35l.11,.11c-.09,0-.55,0-.62,0,0,0,0-.12,0-.12l-.02-1.85,.13,.13h-1.44s-.13,0-.13,0v-.13s.01-1.18,.01-1.18l.12,.12h-1.31s-.11-.01-.11-.01c0-.03,0-.84,0-.9,0,0,.1,.1,.1,.1h-1.08s-.09-.01-.09-.01v-.09s0-.8,0-.8l.08,.08h-.57s-.08,0-.08,0v-.08s0-.61,0-.61l.07,.07s-.51-.01-.51-.01h-.06s0-.06,0-.06l.05-2.02h0Z"/>
          <path d="M177.92,19.29c0-1.39,1.7-1.22,1.84,0,.07,1.33-1.9,1.39-1.84,0h0Zm.03,0c.1,.97,1.55,.93,1.65,0,.12-1.05-1.62-.94-1.65,0h0Z"/>
        </g>
      </g>
      <path class="cls-14" d="M181.34,20.83s1.35-6.21-5.84-4.86c0,0-8.1-6.69-7.6-6.73,.1,0,1.25-.12,1.25-.12l7,5.97,.26,.13s2.52-1.18,4.56,1.07c0,0,1.86,2.07,.36,4.54Z"/>
    </g>
  </g>
</svg>