<?xml version="1.0" encoding="UTF-8"?>
<svg id="Calque_1" data-name="Calque 1" xmlns="http://www.w3.org/2000/svg" viewBox="0 0 133.3 83.6">
  <defs>
    <style>
      .cls-1 {
        stroke-width: .5px;
      }

      .cls-1, .cls-2, .cls-3 {
        fill: none;
        stroke: #000;
      }

      .cls-2 {
        stroke-width: .1px;
      }
    </style>
  </defs>
  <polygon class="cls-3" points="107.64 19.14 106.01 17.15 107.97 15.48 107.83 12.91 110.39 12.72 111.78 10.55 113.97 11.9 116.37 10.97 117.35 13.35 119.84 14 119.23 16.5 120.86 18.49 118.9 20.16 119.05 22.73 116.48 22.92 115.09 25.09 112.9 23.74 110.5 24.67 109.52 22.29 107.03 21.64 107.64 19.14"/>
  <polygon class="cls-3" points="14.1 71.62 13.32 70.66 14.26 69.86 14.19 68.62 15.43 68.53 16.1 67.48 17.15 68.13 18.31 67.68 18.78 68.83 19.98 69.14 19.69 70.35 20.48 71.31 19.53 72.11 19.6 73.35 18.36 73.45 17.69 74.49 16.64 73.84 15.48 74.29 15.01 73.14 13.81 72.83 14.1 71.62"/>
  <polygon points="52.47 74.6 51.28 73.15 52.71 71.93 52.6 70.06 54.47 69.92 55.48 68.34 57.08 69.33 58.83 68.64 59.54 70.38 61.35 70.86 60.91 72.68 62.1 74.13 60.67 75.34 60.78 77.22 58.91 77.36 57.89 78.94 56.3 77.95 54.55 78.63 53.84 76.9 52.02 76.42 52.47 74.6"/>
  <polygon points="69.7 22.56 68.92 21.6 69.86 20.79 69.79 19.56 71.03 19.46 71.7 18.42 72.76 19.07 73.91 18.62 74.38 19.77 75.58 20.08 75.29 21.29 76.08 22.25 75.13 23.05 75.2 24.29 73.96 24.38 73.29 25.43 72.24 24.78 71.08 25.23 70.61 24.08 69.41 23.76 69.7 22.56"/>
  <polygon points="121.13 68.26 116.79 68.26 119.86 65.19 119.14 64.48 116.07 67.54 116.07 63.21 115.06 63.21 115.06 67.54 111.99 64.48 111.27 65.19 114.34 68.26 110 68.26 110 69.28 114.34 69.28 111.27 72.34 111.99 73.06 115.06 69.99 115.06 74.33 116.07 74.33 116.07 69.99 119.14 73.06 119.86 72.34 116.79 69.28 121.13 69.28 121.13 68.26"/>
  <polygon class="cls-1" points="59.28 15.16 49.58 15.16 56.43 8.3 54.83 6.69 47.97 13.55 47.97 3.85 45.7 3.85 45.7 13.55 38.84 6.69 37.24 8.3 44.1 15.16 34.39 15.16 34.39 17.43 44.1 17.43 37.24 24.29 38.84 25.89 45.7 19.03 45.7 28.74 47.97 28.74 47.97 19.03 54.83 25.89 56.43 24.29 49.58 17.43 59.28 17.43 59.28 15.16"/>
  <polygon class="cls-1" points="87.57 62.79 84.07 62.79 86.55 60.31 85.97 59.73 83.49 62.21 83.49 58.71 82.66 58.71 82.66 62.21 80.18 59.73 79.6 60.31 82.08 62.79 78.57 62.79 78.57 63.62 82.08 63.62 79.6 66.1 80.18 66.68 82.66 64.2 82.66 67.71 83.49 67.71 83.49 64.2 85.97 66.68 86.55 66.1 84.07 63.62 87.57 63.62 87.57 62.79"/>
  <polygon points="16.68 23.96 13.46 23.96 15.73 21.68 15.2 21.15 12.92 23.43 12.92 20.21 12.17 20.21 12.17 23.43 9.89 21.15 9.36 21.68 11.64 23.96 8.41 23.96 8.41 24.71 11.64 24.71 9.36 26.99 9.89 27.52 12.17 25.25 12.17 28.47 12.92 28.47 12.92 25.25 15.2 27.52 15.73 26.99 13.46 24.71 16.68 24.71 16.68 23.96"/>
  <g>
    <path class="cls-2" d="M33.29,39.62c0,.26-.09.49-.28.68s-.41.28-.68.28-.49-.09-.68-.28-.28-.41-.28-.68.09-.5.28-.69.41-.28.68-.28.49.09.68.28.28.42.28.69ZM32.5,41.4v8.4h-.35v-8.4h.35Z"/>
    <path class="cls-2" d="M40.07,42.53l-4.44,7.27h-2.34l5.15-8.4h1.98v7.24l4.44-7.24h1.98v8.4h-.35v-7.27l-4.44,7.27h-1.98v-7.27Z"/>
    <path class="cls-2" d="M54.1,42.53l-4.44,7.27h-2.34l5.15-8.4h1.98v7.24l4.44-7.24h1.98v8.4h-.35v-7.27l-4.44,7.27h-1.98v-7.27Z"/>
    <path class="cls-2" d="M68.96,47.7v2.1h-7.14v-8.4h7.14v2.1h-6.82v1.93h5.83v.35h-5.83v1.92h6.82Z"/>
    <path class="cls-2" d="M78.31,49.72c-.18.18-.39.26-.62.26-.41,0-.75-.08-1.02-.25-.27-.16-.49-.38-.66-.64s-.35-.62-.55-1.06c-.2-.42-.36-.75-.49-.97l-.37-.79h-4.4v3.53h-.35v-8.4h.35s3.96.01,3.96.01c.95,0,1.65.1,2.11.3.45.2.75.52.89.96.14.44.22,1.1.22,1.98-.04.51-.23.91-.58,1.19s-.78.43-1.3.43h-.5l.86,1.79c.17.35.34.65.51.91s.36.43.57.53c-.06-.13-.1-.26-.1-.4,0-.25.09-.46.26-.62s.38-.25.62-.25.45.08.62.25.26.37.26.61-.09.45-.27.62ZM76.56,45.59c.3-.22.46-.53.46-.92s-.17-.69-.51-.88c-.34-.19-.77-.28-1.3-.28h-5.02v2.42h5.29c.42,0,.78-.11,1.08-.34Z"/>
    <path class="cls-2" d="M82.76,41.24c1.14,0,2.11.29,2.9.86s1.33,1.41,1.61,2.5l-.5.1c-.46-.5-1-.85-1.62-1.05s-1.32-.29-2.1-.29h-.65c-.5,0-1.02.05-1.58.14-.56.09-1.03.24-1.42.44-.39.2-.59.45-.59.76,0,.18.08.32.25.42.17.1.45.18.86.23.4.05.97.08,1.69.08h3.25c.58,0,1.09.08,1.53.25.44.16.65.5.65,1.01,0,.56-.17,1.1-.52,1.61-.34.51-.83.92-1.46,1.24-.63.31-1.35.47-2.15.47-2.46,0-4-1.12-4.64-3.36l.49-.1c.51.5,1.05.86,1.63,1.06.57.2,1.27.31,2.11.31h.65c.51,0,1.04-.05,1.59-.16.55-.1,1.01-.26,1.39-.46s.56-.45.56-.74c0-.25-.14-.43-.41-.55-.28-.12-.63-.19-1.05-.22-.42-.03-1.02-.04-1.78-.04h-2.68c-.7,0-1.27-.08-1.7-.23-.43-.16-.64-.47-.64-.95,0-.41.15-.87.45-1.39.3-.52.78-.97,1.43-1.35.65-.38,1.47-.58,2.45-.58Z"/>
    <path class="cls-2" d="M89.44,39.62c0,.26-.09.49-.28.68s-.41.28-.68.28-.49-.09-.68-.28-.28-.41-.28-.68.09-.5.28-.69.41-.28.68-.28.49.09.68.28.28.42.28.69ZM88.64,41.4v8.4h-.35v-8.4h.35Z"/>
    <path class="cls-2" d="M95.73,45.77h-5.48v4.02h-.34v-8.39h6.79v2.1h-6.46v1.92h5.48v.35Z"/>
  </g>
  <path class="cls-1" d="M121.02,28.08c0,4.76-3.87,8.63-8.62,8.63-3.75,0-6.95-2.4-8.13-5.75-.1-.28-.19-.56-.26-.85-.16-.65-.24-1.33-.24-2.03,0-4.2-3.42-7.63-7.63-7.63s-7.63,3.43-7.63,7.63h-1c0-4.76,3.87-8.63,8.63-8.63,3.75,0,6.95,2.4,8.13,5.75.1.28.19.56.26.85.16.65.24,1.33.24,2.03,0,4.21,3.42,7.63,7.63,7.63s7.62-3.42,7.62-7.63h1Z"/>
  <path class="cls-1" d="M108.15,77.48c-4.76,0-8.63-3.87-8.63-8.62,0-3.75,2.4-6.95,5.75-8.13.28-.1.56-.19.85-.26.65-.16,1.33-.24,2.03-.24,4.2,0,7.63-3.42,7.63-7.63s-3.43-7.63-7.63-7.63v-1c4.76,0,8.63,3.87,8.63,8.63,0,3.75-2.4,6.95-5.75,8.13-.28.1-.56.19-.85.26-.65.16-1.33.24-2.03.24-4.21,0-7.63,3.42-7.63,7.63s3.42,7.62,7.63,7.62v1Z"/>
  <path class="cls-1" d="M7.27,65.01c0-4.76,3.87-8.63,8.62-8.63,3.75,0,6.95,2.4,8.13,5.75.1.28.19.56.26.85.16.65.24,1.33.24,2.03,0,4.2,3.42,7.63,7.63,7.63s7.63-3.43,7.63-7.63h1c0,4.76-3.87,8.63-8.63,8.63-3.75,0-6.95-2.4-8.13-5.75-.1-.28-.19-.56-.26-.85-.16-.65-.24-1.33-.24-2.03,0-4.21-3.42-7.63-7.63-7.63s-7.62,3.42-7.62,7.63h-1Z"/>
  <path class="cls-1" d="M21.18,16.29c4.76,0,8.63,3.87,8.63,8.62,0,3.75-2.4,6.95-5.75,8.13-.28.1-.56.19-.85.26-.65.16-1.33.24-2.03.24-4.2,0-7.63,3.42-7.63,7.63s3.43,7.63,7.63,7.63v1c-4.76,0-8.63-3.87-8.63-8.63,0-3.75,2.4-6.95,5.75-8.13.28-.1.56-.19.85-.26.65-.16,1.33-.24,2.03-.24,4.21,0,7.63-3.42,7.63-7.63s-3.42-7.62-7.63-7.62v-1Z"/>
</svg>