<?xml version="1.0" encoding="UTF-8"?>
<svg id="Calque_1" data-name="Calque 1" xmlns="http://www.w3.org/2000/svg" viewBox="0 0 167.81 168.04">
  <path d="M82.84,4.13c25.28,0,50.57,0,75.85,0,2.02,0,3.37,.89,3.81,2.56,.11,.4,.13,.84,.13,1.26,0,42.63,0,85.26,0,127.88,0,8.03,0,16.07,0,24.1,0,2.61-1.36,3.97-4,3.97-43.87,0-87.75,0-131.62,0-6.79,0-13.58,0-20.36,0-2.36,0-3.8-1.42-3.8-3.77,0-30.07,0-60.14,0-90.21,0-20.63,0-41.25,0-61.88,0-2.5,1.39-3.92,3.85-3.92,25.38,0,50.76,0,76.14,0ZM9.95,156.77H155.49V11.27H9.95V156.77Z"/>
  <path d="M124.01,151.94c-6.79,.02-12.62-1.2-18.01-4.2-5.09-2.83-8.96-6.87-11.67-12.01-1.12-2.14-.61-3.97,1.46-5.18,3.73-2.18,7.47-4.33,11.21-6.48,2.01-1.15,3.8-.6,5.17,1.31,1.09,1.53,2.23,3.11,3.65,4.32,3.23,2.74,7.03,3.12,10.99,1.88,1.29-.41,2.36-1.19,2.52-2.71,.16-1.54-.64-2.63-1.89-3.28-2.55-1.33-5.12-2.62-7.75-3.77-4.23-1.85-8.46-3.67-12.18-6.48-5.43-4.1-8.59-9.47-9.28-16.29-.47-4.64,.06-9.1,2.19-13.27,3.04-5.95,7.97-9.64,14.34-11.32,6.36-1.67,12.7-1.46,18.9,.89,4.87,1.85,8.49,5.21,11.29,9.52,.41,.63,.81,1.27,1.16,1.93,.85,1.6,.43,3.53-1.09,4.52-3.78,2.47-7.57,4.92-11.4,7.3-1.8,1.12-3.73,.49-4.92-1.28-.79-1.18-1.66-2.37-2.7-3.32-1.34-1.22-3.08-1.12-4.76-.82-.92,.17-1.67,.72-1.87,1.68-.23,1.11-.24,2.31,.81,3.05,1.17,.82,2.39,1.6,3.69,2.21,3.25,1.52,6.6,2.86,9.84,4.41,4.85,2.32,9.36,5.13,12.66,9.53,2.45,3.26,3.77,6.95,4.18,10.95,.41,4,.2,7.97-1.25,11.79-2.57,6.74-7.55,10.93-14.2,13.29-3.8,1.35-7.73,1.91-11.1,1.84Zm14.03-64.51c-1.3-2.05-3.6-4.04-6.21-5.19-4.33-1.9-8.87-2.17-13.47-1.36-7.09,1.25-12.4,6.02-13.09,13.27-.58,6.17,1.17,11.45,6.27,15.34,3.34,2.55,7.16,4.16,10.98,5.8,3.3,1.42,6.66,2.73,9.58,4.89,3.83,2.82,5.29,7.31,3.74,11.74-1.14,3.27-3.59,5.28-6.77,6.36-6.92,2.36-15.17,.68-20.43-5.7-.24-.29-.5-.57-.74-.86-1.96,1.13-3.82,2.21-5.71,3.3,2.28,3.21,5.14,5.61,8.62,7.22,5.93,2.74,12.15,3.18,18.52,2.06,3.81-.67,7.33-2.07,10.07-4.89,4.7-4.85,5.06-10.68,3.46-16.83-.98-3.77-3.57-6.4-6.7-8.54-3.45-2.36-7.26-4-11.07-5.65-3.15-1.36-6.38-2.57-9.1-4.75-5.45-4.37-5.04-12.99,.91-16.23,4.45-2.43,8.96-2,13.19,.76,1.05,.68,1.91,1.65,2.87,2.5,1.68-1.07,3.36-2.14,5.09-3.25Z"/>
  <path d="M88.25,103.3c0,7.9,0,15.8,0,23.71,0,4.67-.79,9.19-2.99,13.36-2.92,5.53-7.56,8.96-13.53,10.51-6.39,1.67-12.78,1.56-19.03-.74-6.58-2.42-11.13-7.06-14.15-13.29-.82-1.7-.19-3.66,1.39-4.62,3.72-2.25,7.44-4.5,11.18-6.74,2.4-1.44,4.27-.9,5.67,1.48,.74,1.26,1.57,2.49,2.48,3.64,1.5,1.91,4.62,1.74,5.97,.96,.65-.37,1.06-1.36,1.31-2.15,.26-.82,.26-1.75,.27-2.63,.01-15.94,.01-31.87,.01-47.81,0-.36,0-.72,0-1.08,.04-2.16,1.48-3.66,3.65-3.67,4.69-.03,9.38-.03,14.07,0,2.29,.01,3.71,1.48,3.71,3.78,0,8.43,0,16.85,0,25.28h0Zm-14.33-21.99c-.02,.27-.03,.43-.03,.59,0,5.97,0,11.94,0,17.9,0,9.18,.02,18.36-.02,27.54-.01,3.21-.63,6.28-2.92,8.72-3.71,3.93-11.36,4.19-15.64,.51-1.15-.99-2.12-2.2-3.25-3.38-1.79,1.08-3.65,2.2-5.57,3.35,2.27,3.38,5.2,5.77,8.98,7.08,4.32,1.51,8.75,1.57,13.18,.73,3.66-.7,6.87-2.34,9.16-5.42,2.42-3.26,3.31-7.04,3.33-10.99,.06-15.35,.04-30.69,.04-46.04,0-.19-.04-.37-.06-.59h-7.19Z"/>
</svg>