<?xml version="1.0" encoding="UTF-8"?>
<svg id="Calque_1" data-name="Calque 1" xmlns="http://www.w3.org/2000/svg" viewBox="0 0 120.29 160.73">
  <path d="M94.61,15.12c6.01,5.86,15.01,14.27,20.11,20.54,3.68,4.53,4.69,8.64,5.03,14.43,1.72,29.17-1.35,60,0,89.34-.56,11.88-8.38,19.83-20.2,20.7-25.45,1.87-53.16-1.46-78.85,0C9.28,159.63.9,151.91,0,140.43V20.67C.72,10.85,6.27,3.68,15.78,1.03c17.95.02,38-1.88,55.84-.57,10.62.78,15.86,7.69,23,14.66ZM104.77,141.41V51.12l-.75-.75h-25.44c-.98,0-5.05-2.18-5.93-3.05-1.21-1.2-2.8-4.57-2.8-6.18v-24.94l-.75-.75H19.22c-1.89,0-4.71,3.06-4.27,5.21l.26,121.01,2.38,3.1,82.45.4c2.01.4,4.37-2.06,4.71-3.77Z"/>
</svg>