<?xml version="1.0" encoding="UTF-8"?>
<svg id="Calque_1" data-name="Calque 1" xmlns="http://www.w3.org/2000/svg" viewBox="0 0 183.02 143.34">
  <defs>
    <style>
      .cls-1 {
        stroke: #1d1d1b;
        stroke-miterlimit: 10;
        stroke-width: 3px;
      }
    </style>
  </defs>
  <path class="cls-1" d="M151.86,51.94h-9.98v-12.72c0-.17-1.25-2.64-1.49-3-1.32-1.95-4.43-3.87-6.78-4.19-18.78-2.56-41.95,5.74-57.82-7.54-4.04-3.38-10.53-11.76-15.52-12.41-12.12-1.57-27.37,1.05-39.83,0-3.15-.13-8.27,4.86-8.27,7.69v91.52l16.71-41.4c1.88-3.81,5.15-6.12,9.12-7.34,42.91-1.46,86.07-.23,129.08-.63,11.71,1.31,16.76,10.36,13.46,21.42-5.04,16.87-14.95,35.01-21.17,51.65-1.8,3.06-4.72,4.83-8,5.97-42.69,1.75-85.69.23-128.49.77-12.43-.81-19.89-8.26-20.71-20.7C.05,88.8,3.79,54.26,2.2,21.78,3.22,10.32,10.92,2.89,22.38,2.05c8.59-.63,33.63-1.08,41.2.75,12.3,2.97,15.83,18.02,30.15,19.24,12.98,1.1,39.56-3.21,49.63,3.75,4.11,2.84,8.51,9.91,8.51,14.93v11.22ZM40.97,72.01c-1.79.51-3.01,1.54-3.71,3.27l-19.88,49.96c-1.08,3.03,1.52,6.16,4.5,6.52l126.5-.25c2.01-.61,2.81-2.03,3.72-3.76,4.53-15.59,15.25-32.78,19.24-48.1,1.08-4.13.24-6.26-3.74-7.78l-126.64.14Z"/>
</svg>