<?xml version="1.0" encoding="UTF-8"?>
<svg id="Calque_1" data-name="Calque 1" xmlns="http://www.w3.org/2000/svg" viewBox="0 0 178.45 158.88">
  <path d="M172.38,6.08c8.7,8.7,7.7,23.09-.81,31.52l-76.9,76.79c-1.08,1.82.1,3.86.06,6.02-.42,21.54-15.29,36.84-36.72,38.16-15.95.99-32.85-.72-48.9,0-9.81-.31-12.61-14.78-3.88-18.84,5.1-2.37,10.3.74,13.71-5.75,2.53-4.82.84-7.94.85-12.58.04-20.29,16.42-37.16,36.73-37.66,2.27-.06,5.98.91,7.51.02,18.88-19.21,38.14-38.1,57.38-56.89,6.82-6.66,13.84-14.89,20.93-20.98,8.73-7.5,21.58-8.26,30.03.19ZM155.45,15c-.99.21-2.08.98-2.87,1.62l-56.66,56.64c-.33.38-.2.61,0,.99.27.52,7.75,8,8.27,8.27.38.2.61.33.99,0l56.62-56.19c4.09-5.27.72-12.79-6.34-11.33ZM30.82,143.61h29.2c3.8,0,10.72-3.79,13.42-6.54,5.33-5.41,8.75-17.62,4.52-24.38-.91-1.46-10.07-10.53-11.7-11.76-6.05-4.57-17.71-1.8-23.23,2.75-13.27,10.93-4.55,22.38-9.98,35.43-.67,1.61-1.97,2.8-2.24,4.5Z"/>
</svg>