<?xml version="1.0" encoding="UTF-8"?>
<svg id="Calque_1" data-name="Calque 1" xmlns="http://www.w3.org/2000/svg" viewBox="0 0 27.29 26.69">
  <path class="cls-1" d="M21.58,16.68c1.37.94,2.26,2.51,2.26,4.3,0,2.88-2.33,5.21-5.21,5.21-2.23,0-4.13-1.4-4.87-3.37-.79,1.88-2.64,3.19-4.8,3.19-2.88,0-5.21-2.33-5.21-5.21,0-1.67.79-3.17,2.02-4.12h-.05c-2.88,0-5.21-2.33-5.21-5.21s2.33-5.21,5.21-5.21c1.09,0,2.1.33,2.93.9-.14-.46-.21-.95-.21-1.45,0-2.88,2.33-5.21,5.21-5.21s5.21,2.33,5.21,5.21c0,.5-.07.99-.21,1.45.84-.57,1.84-.9,2.93-.9,2.87,0,5.21,2.34,5.21,5.21s-2.34,5.21-5.21,5.21Z"/>
</svg>