<?xml version="1.0" encoding="UTF-8"?>
<svg id="Calque_1" data-name="Calque 1" xmlns="http://www.w3.org/2000/svg" viewBox="0 0 26.77 25.82">
  <path class="cls-1" d="M26.27,19.11c0,1.71-.7,3.26-1.82,4.39s-2.67,1.82-4.39,1.82H6.7c-3.43,0-6.2-2.78-6.2-6.2,0-1.71.7-3.26,1.82-4.39,1.12-1.12,2.67-1.82,4.39-1.82-3.43,0-6.2-2.78-6.2-6.2,0-1.71.7-3.26,1.82-4.39,1.12-1.12,2.67-1.82,4.39-1.82h13.36c3.42,0,6.2,2.78,6.2,6.2,0,1.71-.7,3.26-1.82,4.39-1.12,1.12-2.67,1.82-4.39,1.82,3.42,0,6.2,2.78,6.2,6.2Z"/>
</svg>